<svg width="192" height="50" viewBox="0 0 192 50" fill="none" xmlns="http://www.w3.org/2000/svg">
<g clip-path="url(#clip0_12_191)">
<path fill-rule="evenodd" clip-rule="evenodd" d="M24.8425 0C22.9918 0 21.1918 0.208209 19.4575 0.593284V24.8612C19.4575 27.8351 21.8821 30.2604 24.8567 30.2604C27.8299 30.2604 30.2537 27.8351 30.2537 24.8627C30.2537 22.006 28.0216 19.6612 25.2157 19.4746V15.153C30.4007 15.341 34.5731 19.6306 34.5731 24.8627C34.5731 30.2134 30.2082 34.5806 24.8567 34.5806C19.503 34.5806 15.1388 30.2134 15.1388 24.8612V1.96642C14.5254 2.22687 13.9261 2.51567 13.3388 2.82612V24.8612C13.3396 31.2037 18.5142 36.3761 24.8567 36.3761C31.2 36.3761 36.3724 31.2037 36.3724 24.8627C36.3724 18.6396 31.3948 13.5433 25.2157 13.3515V9.03134C33.7724 9.22463 40.6896 16.2619 40.6896 24.8627C40.6896 33.5851 33.5769 40.6963 24.8567 40.6963C16.1343 40.6963 9.0194 33.5851 9.0194 24.8612V5.69179C3.51194 10.2463 0 17.1336 0 24.8425C0 38.5627 11.1224 49.6881 24.8433 49.6881C38.5664 49.6881 49.6858 38.5627 49.6858 24.8425C49.6858 11.1224 38.5664 0 24.8425 0Z" fill="#D91935"/>
<path d="M75.929 14.1818V36H73.2869V16.9517H73.1591L67.8324 20.4886V17.804L73.2869 14.1818H75.929ZM100.144 21H97.5021C97.3459 20.2401 97.0724 19.5724 96.6818 18.9972C96.2983 18.4219 95.8295 17.9389 95.2756 17.5483C94.7287 17.1506 94.1214 16.8523 93.4538 16.6534C92.7862 16.4545 92.0902 16.3551 91.3658 16.3551C90.0447 16.3551 88.848 16.6889 87.7756 17.3565C86.7102 18.0241 85.8615 19.0078 85.2294 20.3075C84.6044 21.6072 84.2919 23.2017 84.2919 25.0909C84.2919 26.9801 84.6044 28.5746 85.2294 29.8743C85.8615 31.174 86.7102 32.1577 87.7756 32.8253C88.848 33.4929 90.0447 33.8267 91.3658 33.8267C92.0902 33.8267 92.7862 33.7273 93.4538 33.5284C94.1214 33.3295 94.7287 33.0348 95.2756 32.6442C95.8295 32.2464 96.2983 31.7599 96.6818 31.1847C97.0724 30.6023 97.3459 29.9347 97.5021 29.1818H100.144C99.9453 30.2969 99.5831 31.2947 99.0575 32.1754C98.532 33.0561 97.8786 33.8054 97.0973 34.4233C96.3161 35.0341 95.4389 35.4993 94.4659 35.8189C93.5 36.1385 92.4666 36.2983 91.3658 36.2983C89.505 36.2983 87.8501 35.8438 86.4013 34.9347C84.9524 34.0256 83.8125 32.733 82.9815 31.0568C82.1506 29.3807 81.7351 27.392 81.7351 25.0909C81.7351 22.7898 82.1506 20.8011 82.9815 19.125C83.8125 17.4489 84.9524 16.1562 86.4013 15.2472C87.8501 14.3381 89.505 13.8835 91.3658 13.8835C92.4666 13.8835 93.5 14.0433 94.4659 14.3629C95.4389 14.6825 96.3161 15.1513 97.0973 15.7692C97.8786 16.38 98.532 17.1257 99.0575 18.0064C99.5831 18.88 99.9453 19.8778 100.144 21ZM113.448 23.919V26.2628H103.902V23.919H113.448ZM118.212 36V14.1818H125.84C127.36 14.1818 128.614 14.4446 129.601 14.9702C130.588 15.4886 131.323 16.1882 131.806 17.0689C132.289 17.9425 132.531 18.9119 132.531 19.9773C132.531 20.9148 132.364 21.6889 132.03 22.2997C131.703 22.9105 131.27 23.3935 130.73 23.7486C130.197 24.1037 129.619 24.3665 128.994 24.5369V24.75C129.661 24.7926 130.332 25.027 131.007 25.4531C131.682 25.8793 132.246 26.4901 132.701 27.2855C133.156 28.081 133.383 29.054 133.383 30.2045C133.383 31.2983 133.134 32.282 132.637 33.1555C132.14 34.0291 131.355 34.7216 130.283 35.233C129.21 35.7443 127.815 36 126.096 36H118.212ZM120.854 33.6562H126.096C127.822 33.6562 129.047 33.3224 129.771 32.6548C130.503 31.9801 130.869 31.1634 130.869 30.2045C130.869 29.4659 130.68 28.7841 130.304 28.1591C129.928 27.527 129.391 27.0227 128.695 26.6463C127.999 26.2628 127.175 26.071 126.224 26.071H120.854V33.6562ZM120.854 23.7699H125.755C126.55 23.7699 127.268 23.6136 127.907 23.3011C128.553 22.9886 129.065 22.5483 129.441 21.9801C129.825 21.4119 130.016 20.7443 130.016 19.9773C130.016 19.0185 129.683 18.2053 129.015 17.5376C128.347 16.8629 127.289 16.5256 125.84 16.5256H120.854V23.7699ZM137.383 36V19.6364H139.897V36H137.383ZM138.662 16.9091C138.172 16.9091 137.749 16.7422 137.394 16.4084C137.046 16.0746 136.872 15.6733 136.872 15.2045C136.872 14.7358 137.046 14.3345 137.394 14.0007C137.749 13.6669 138.172 13.5 138.662 13.5C139.152 13.5 139.571 13.6669 139.919 14.0007C140.274 14.3345 140.451 14.7358 140.451 15.2045C140.451 15.6733 140.274 16.0746 139.919 16.4084C139.571 16.7422 139.152 16.9091 138.662 16.9091ZM151.619 19.6364V21.767H143.139V19.6364H151.619ZM145.61 15.7159H148.124V31.3125C148.124 32.0227 148.227 32.5554 148.433 32.9105C148.646 33.2585 148.916 33.4929 149.243 33.6136C149.577 33.7273 149.928 33.7841 150.298 33.7841C150.575 33.7841 150.802 33.7699 150.98 33.7415C151.157 33.706 151.299 33.6776 151.406 33.6562L151.917 35.9148C151.747 35.9787 151.509 36.0426 151.203 36.1065C150.898 36.1776 150.511 36.2131 150.042 36.2131C149.332 36.2131 148.636 36.0604 147.954 35.755C147.279 35.4496 146.718 34.9844 146.271 34.3594C145.83 33.7344 145.61 32.946 145.61 31.9943V15.7159ZM155.401 36V19.6364H157.83V22.108H158C158.298 21.2983 158.838 20.6413 159.619 20.1371C160.401 19.6328 161.281 19.3807 162.262 19.3807C162.446 19.3807 162.677 19.3842 162.954 19.3913C163.231 19.3984 163.441 19.4091 163.583 19.4233V21.9801C163.497 21.9588 163.302 21.9268 162.997 21.8842C162.698 21.8345 162.382 21.8097 162.048 21.8097C161.253 21.8097 160.543 21.9766 159.918 22.3104C159.3 22.6371 158.81 23.0916 158.448 23.674C158.093 24.2493 157.915 24.9062 157.915 25.6449V36H155.401ZM166.563 36V19.6364H169.077V36H166.563ZM167.841 16.9091C167.351 16.9091 166.929 16.7422 166.574 16.4084C166.225 16.0746 166.051 15.6733 166.051 15.2045C166.051 14.7358 166.225 14.3345 166.574 14.0007C166.929 13.6669 167.351 13.5 167.841 13.5C168.331 13.5 168.75 13.6669 169.098 14.0007C169.453 14.3345 169.631 14.7358 169.631 15.2045C169.631 15.6733 169.453 16.0746 169.098 16.4084C168.75 16.7422 168.331 16.9091 167.841 16.9091ZM175.557 19.6364L179.477 26.3267L183.398 19.6364H186.296L181.012 27.8182L186.296 36H183.398L179.477 29.6506L175.557 36H172.659L177.858 27.8182L172.659 19.6364H175.557Z" fill="black"/>
</g>
<defs>
<clipPath id="clip0_12_191">
<rect width="192" height="50" fill="white"/>
</clipPath>
</defs>
</svg>
