<svg width="100" height="100" viewBox="0 0 100 100" fill="none" xmlns="http://www.w3.org/2000/svg">
<path d="M49.375 78.9037C45.1462 78.9219 40.9294 78.4508 36.8087 77.4999C35.5839 77.2236 34.3824 76.8522 33.2153 76.3891L36.1193 81.3506L37.2552 96.8531C37.2552 98.5926 42.7775 100 49.5858 100C56.394 100 61.9163 98.5926 61.9163 96.8531L62.8165 81.1827L65.5634 76.3748C64.3866 76.8454 63.1742 77.2216 61.9378 77.4999C57.8183 78.4506 53.6027 78.9216 49.375 78.9037V78.9037ZM65.6562 28.4599C60.3245 29.1229 54.9549 29.4344 49.5822 29.3922C44.2096 29.4344 38.8399 29.1229 33.5082 28.4599C31.8147 28.2545 30.1418 27.9056 28.5074 27.4169C28.0818 27.2848 27.6693 27.1138 27.275 26.9061L29.9362 51.4172C30.06 50.9957 30.1981 50.5742 30.3505 50.1527C30.6592 49.2911 31.017 48.4479 31.4221 47.6273C31.8226 46.8235 32.2711 46.0446 32.7652 45.2948C33.2314 44.5854 33.747 43.9098 34.3083 43.273C34.8169 42.6917 35.379 42.1595 35.9872 41.6835C36.5206 41.2646 37.1051 40.9153 37.7267 40.644C38.2764 40.4082 38.8682 40.2867 39.4663 40.2868C40.1441 40.291 40.8082 40.4786 41.388 40.8297C42.0924 41.2765 42.686 41.8774 43.124 42.5872C43.2412 42.7515 43.3217 42.9391 43.3598 43.1373C43.3919 43.3105 43.4086 43.4862 43.4098 43.6623C43.4282 43.9916 43.3295 44.3168 43.1312 44.5804C43.0545 44.6836 42.9549 44.7676 42.8402 44.8259C42.7256 44.8841 42.599 44.915 42.4704 44.9161C42.342 44.9098 42.2167 44.8744 42.1041 44.8125C41.9915 44.7506 41.8944 44.6639 41.8202 44.5589C41.5653 44.2285 41.3406 43.8758 41.1487 43.5052C40.9666 43.1502 40.7035 42.8431 40.3807 42.6086C40.1119 42.4264 39.7946 42.3294 39.4699 42.33C38.8724 42.3619 38.3006 42.5833 37.8375 42.9622C37.1963 43.4445 36.6189 44.0062 36.1193 44.6339C35.5135 45.3828 34.9677 46.1782 34.4869 47.0129C33.9713 47.8968 33.5108 48.8118 33.1081 49.7526C32.7217 50.6491 32.4029 51.5733 32.1544 52.5173C31.9328 53.3147 31.8128 54.1368 31.7972 54.9642C31.7981 55.2126 31.8148 55.4608 31.8472 55.7071C31.8755 55.9459 31.938 56.1793 32.033 56.4001C32.1118 56.5952 32.2339 56.7699 32.3902 56.9109C32.5567 57.0478 32.7677 57.119 32.9831 57.1109C33.3065 57.0959 33.6215 57.0028 33.9011 56.8395C34.2798 56.6353 34.6386 56.3962 34.9727 56.1251C35.3601 55.8137 35.7297 55.481 36.08 55.1285C36.4515 54.7594 36.7968 54.3843 37.1159 54.0033C37.435 53.6223 37.7184 53.2579 37.9661 52.9103C38.1766 52.6226 38.363 52.3179 38.5233 51.9994L39.5377 48.9632C39.6221 48.6806 39.7918 48.4311 40.0235 48.2488C40.203 48.1173 40.419 48.0448 40.6415 48.0416C40.7447 48.0417 40.8473 48.0586 40.9451 48.0916C41.0509 48.1267 41.1476 48.185 41.2279 48.2622C41.3083 48.3395 41.3703 48.4338 41.4095 48.5381C41.4595 48.6679 41.4838 48.8063 41.4809 48.9453C41.4826 49.3362 41.4455 49.7263 41.3702 50.1098C41.2988 50.4723 41.2058 50.8301 41.0916 51.1814C40.9796 51.5267 40.8546 51.8732 40.7165 52.2209C40.5784 52.5685 40.4438 52.9329 40.3129 53.3139C40.2486 53.4448 40.196 53.581 40.1557 53.7211C40.0795 53.9592 39.9866 54.2462 39.8771 54.582C39.7675 54.9177 39.6485 55.3035 39.5199 55.7393L39.127 57.0431C38.9912 57.486 38.8626 57.9206 38.7412 58.3469C38.6197 58.7731 38.509 59.1589 38.409 59.5042L38.1625 60.3686C38.0982 60.6008 38.0554 60.7258 38.0411 60.783C37.9967 60.9404 37.9382 61.0934 37.866 61.2402C37.7868 61.408 37.6924 61.5683 37.5838 61.7188C37.4828 61.8546 37.3624 61.9749 37.2267 62.076C37.1125 62.1695 36.9705 62.2222 36.823 62.2261C36.7256 62.2343 36.6278 62.2172 36.5389 62.1765C36.4501 62.1359 36.3732 62.0729 36.3158 61.9939C36.187 61.7288 36.1326 61.4337 36.1586 61.1402V60.958C36.1552 60.8937 36.1552 60.8294 36.1586 60.7651C36.2049 60.5012 36.2742 60.2418 36.3658 59.99C36.4682 59.6113 36.5873 59.1827 36.723 58.7041C36.8587 58.2254 37.0111 57.7301 37.1802 57.2181C37.3445 56.7061 37.4922 56.2477 37.6231 55.8429C37.2374 56.2739 36.8194 56.7025 36.3694 57.1288C35.9334 57.5426 35.4704 57.9268 34.9834 58.279C34.5364 58.6038 34.0577 58.8826 33.5546 59.1113C33.1207 59.3155 32.6482 59.425 32.1687 59.4327C31.7078 59.4452 31.2526 59.329 30.8542 59.097C30.7863 59.0577 30.7256 59.0113 30.6649 58.9648L32.1473 74.5102C32.533 75.4782 39.7985 77.8536 49.3822 77.8536C58.9659 77.8536 66.2385 75.4746 66.6171 74.5066L68.7603 56.0251L68.2495 56.4966C67.6984 57.0137 67.1214 57.5025 66.5207 57.9611C66.0315 58.3395 65.4991 58.6585 64.9347 58.9112C64.4114 59.1366 63.847 59.2509 63.2773 59.247C62.8216 59.2772 62.3693 59.1513 61.9949 58.8898C61.8464 58.7717 61.7279 58.6203 61.6491 58.4477C61.5702 58.2751 61.5333 58.0863 61.5413 57.8968V57.8003C61.5382 57.7635 61.5382 57.7265 61.5413 57.6896C61.592 57.3718 61.7075 57.0679 61.8806 56.7966C62.0969 56.4333 62.3355 56.0838 62.595 55.75C62.8713 55.3881 63.1654 55.0213 63.4773 54.6498C63.7893 54.2783 64.0786 53.9271 64.3453 53.5961C64.5822 53.3049 64.8028 53.0008 65.0061 52.6852C65.1515 52.4887 65.2415 52.2568 65.2669 52.0137C65.2687 51.9668 65.2597 51.9202 65.2405 51.8775C65.2212 51.8347 65.1924 51.797 65.1562 51.7672C65.0502 51.6989 64.9246 51.6675 64.799 51.6779C64.4856 51.683 64.1777 51.76 63.8988 51.903C63.569 52.0668 63.2606 52.2707 62.9808 52.5102C62.6654 52.7783 62.3705 53.0697 62.0985 53.3818C61.8124 53.7085 61.5429 54.0494 61.2912 54.4034C61.0412 54.7558 60.8126 55.113 60.6054 55.475C60.3982 55.8369 60.222 56.1667 60.0768 56.4644L59.891 56.8645C59.8101 57.0359 59.7231 57.23 59.6303 57.4467C59.5374 57.6634 59.4374 57.8849 59.3302 58.1111C59.2254 58.3492 59.129 58.5648 59.0409 58.7576L58.8051 59.3006C58.7361 59.4601 58.6873 59.5697 58.6587 59.6292C58.6301 59.6887 58.5706 59.8352 58.4801 60.0686C58.3967 60.2829 58.3003 60.5353 58.1907 60.8258L57.8335 61.7367L57.4942 62.6404L57.2156 63.3905C57.137 63.6049 57.0834 63.7477 57.062 63.8299C56.9917 64.0466 56.9057 64.2579 56.8048 64.4621C56.7132 64.6501 56.5992 64.8264 56.4655 64.9872C56.3433 65.132 56.1956 65.253 56.0297 65.3444C55.8611 65.4363 55.6716 65.4831 55.4796 65.4802C55.2485 65.49 55.0205 65.4249 54.8295 65.2944C54.7337 65.2037 54.6606 65.0919 54.6159 64.9678C54.5712 64.8437 54.5563 64.7109 54.5723 64.58C54.5728 64.4019 54.5944 64.2244 54.6366 64.0514C54.6807 63.8697 54.7356 63.6907 54.8009 63.5156C54.8652 63.337 54.9331 63.1584 55.0045 62.9976C55.076 62.8369 55.1367 62.669 55.1938 62.5118C55.5868 61.6498 55.9868 60.7865 56.394 59.9221C56.8012 59.0577 57.1918 58.2004 57.5656 57.3503C57.6442 57.1717 57.7157 56.9931 57.7907 56.8252L57.7228 56.8931C57.2731 57.3259 56.7958 57.7292 56.294 58.1004C55.86 58.4276 55.3917 58.7067 54.8974 58.9327C54.4755 59.1303 54.0165 59.2363 53.5507 59.2434C53.2944 59.2514 53.0394 59.2026 52.8042 59.1006C52.6149 59.0139 52.4504 58.8813 52.3255 58.7148C52.2003 58.5406 52.1128 58.3424 52.0683 58.1325C52.0683 58.0575 52.0398 57.9754 52.029 57.8968C51.9004 57.9968 51.7719 58.0932 51.6433 58.1861C51.2254 58.4852 50.7792 58.7424 50.3109 58.9541C49.9424 59.1314 49.5409 59.2299 49.1321 59.2434C48.9732 59.248 48.815 59.2185 48.6684 59.1569C48.5218 59.0953 48.39 59.003 48.282 58.8862C48.0305 58.5435 47.9147 58.1198 47.957 57.6968C47.9657 57.231 48.0244 56.7676 48.132 56.3144C47.9244 56.6753 47.6853 57.0172 47.4176 57.336C47.129 57.6847 46.8032 58.0009 46.446 58.279C46.0743 58.5668 45.6628 58.799 45.2244 58.9684C44.7547 59.148 44.2555 59.2377 43.7527 59.2327C43.5188 59.2339 43.2857 59.2038 43.0597 59.1434C42.8444 59.0858 42.6452 58.9795 42.4775 58.8327C42.2991 58.6701 42.1609 58.4684 42.0739 58.2433C41.963 57.9478 41.9108 57.6336 41.9203 57.3181C41.9203 57.3181 41.9203 57.1788 41.9631 56.9252C42.0266 56.5189 42.1197 56.1177 42.2417 55.725C42.3989 55.1773 42.637 54.4629 42.9561 53.5818C43.2752 52.7007 43.7372 51.6458 44.3421 50.417C44.4538 50.1373 44.6359 49.8912 44.8707 49.7026C45.0591 49.5639 45.2869 49.4888 45.5208 49.4883C45.6284 49.4894 45.7354 49.505 45.8388 49.5347C45.9484 49.5649 46.0522 49.6132 46.1459 49.6776C46.2394 49.7419 46.3175 49.826 46.3746 49.9241C46.436 50.0328 46.4657 50.1565 46.4603 50.2813C46.4611 50.3645 46.4502 50.4475 46.4281 50.5277C46.3701 50.7272 46.291 50.92 46.1924 51.1028C46.0733 51.341 45.9328 51.6124 45.7709 51.9173C45.609 52.2221 45.4399 52.5519 45.2637 52.9067C45.0851 53.2591 44.9196 53.6247 44.7672 54.0033C44.6148 54.3815 44.4836 54.7678 44.3742 55.1606C44.2683 55.5332 44.2059 55.9167 44.1885 56.3037C44.1875 56.4526 44.2257 56.5992 44.2992 56.7287C44.3346 56.7912 44.3869 56.8424 44.4501 56.8765C44.5133 56.9106 44.5848 56.9263 44.6564 56.9216C45.1458 56.9162 45.6205 56.7534 46.0102 56.4573C46.4583 56.1283 46.8586 55.7388 47.1997 55.2999C47.5676 54.8319 47.8973 54.3349 48.1856 53.814C48.4808 53.2853 48.7261 52.8007 48.9214 52.3602C49.0619 52.0544 49.1812 51.7393 49.2786 51.4172C49.3811 51.1015 49.5004 50.7915 49.6358 50.4884C49.7419 50.2309 49.8851 49.9902 50.0609 49.774C50.1324 49.6837 50.2237 49.611 50.3277 49.5614C50.4317 49.5119 50.5457 49.4869 50.661 49.4883C50.7808 49.4839 50.8999 49.5085 51.0081 49.5602C51.1164 49.6118 51.2105 49.6889 51.2825 49.7848C51.4379 49.9899 51.5186 50.2419 51.5111 50.4992C51.4974 50.7188 51.4479 50.9348 51.3646 51.1386C51.267 51.41 51.1479 51.7196 51.0074 52.0673C50.8669 52.415 50.705 52.7876 50.5217 53.1853C50.3478 53.583 50.1859 53.9854 50.0359 54.3926C49.8959 54.7862 49.7767 55.1868 49.6787 55.5928C49.5852 55.9498 49.536 56.3169 49.5322 56.6859C49.5243 56.75 49.5313 56.8151 49.5528 56.8761C49.5743 56.937 49.6096 56.9922 49.656 57.0372C49.7023 57.0822 49.7585 57.1158 49.8201 57.1354C49.8817 57.1551 49.947 57.1601 50.0109 57.1502C50.3039 57.1326 50.5898 57.0535 50.8503 56.9181C51.2241 56.7389 51.5774 56.5197 51.904 56.2644C51.9969 56.1929 52.0898 56.1215 52.1791 56.0465C52.2714 55.6495 52.3908 55.2592 52.5363 54.8784C52.7911 54.2069 53.0494 53.5389 53.3114 52.8745L54.0258 51.0528L57.3299 42.7193C57.4236 42.43 57.6092 42.1792 57.8585 42.0049C58.0583 41.8738 58.2912 41.802 58.5301 41.7978C58.7539 41.7975 58.9709 41.8744 59.1445 42.0156C59.2436 42.1046 59.3205 42.2156 59.3689 42.3397C59.4173 42.4637 59.4359 42.5975 59.4231 42.7301C59.4205 42.8973 59.3891 43.0629 59.3302 43.2194C59.2611 43.409 59.1825 43.595 59.0945 43.7766C58.9135 44.1815 58.6968 44.6768 58.4444 45.2626C58.1919 45.8484 57.9228 46.4854 57.6371 47.1736C57.3489 47.8618 57.0548 48.5762 56.7548 49.3168L55.8725 51.4922C55.5868 52.2066 55.3177 52.8757 55.0652 53.4996L54.4151 55.1463C54.3249 55.3732 54.2463 55.6045 54.1794 55.8393C54.1075 56.0708 54.069 56.3113 54.0651 56.5537C54.0597 56.6611 54.0819 56.768 54.1294 56.8645C54.1558 56.9056 54.1933 56.9384 54.2375 56.9593C54.2817 56.9801 54.3309 56.9881 54.3794 56.9824C54.5791 56.9694 54.7738 56.9146 54.9509 56.8216C55.2086 56.6983 55.457 56.5562 55.6939 56.3965C55.9606 56.2203 56.2369 56.0179 56.5226 55.7893C56.8084 55.5607 57.0941 55.3226 57.3799 55.0749C57.6633 54.8368 57.9348 54.5915 58.1943 54.3391C58.4539 54.0866 58.6849 53.8604 58.8873 53.6604C58.935 53.6123 58.9922 53.5745 59.0552 53.5497C59.1766 53.1925 59.2909 52.8353 59.3874 52.4781C59.4445 52.3233 59.5243 52.103 59.6267 51.8172C59.7316 51.5316 59.8508 51.2514 59.9839 50.9778C60.1031 50.7232 60.2518 50.4834 60.4268 50.2634C60.4891 50.1805 60.5693 50.1127 60.6615 50.0651C60.7536 50.0174 60.8554 49.9912 60.9591 49.9884C61.0724 49.9781 61.1867 49.9904 61.2953 50.0248C61.4039 50.0591 61.5045 50.1147 61.5913 50.1884C61.6613 50.2688 61.7148 50.3623 61.7485 50.4634C61.7822 50.5646 61.7956 50.6714 61.7878 50.7778C61.7854 50.8603 61.7782 50.9426 61.7663 51.0243C61.7663 51.135 61.7342 51.2564 61.7127 51.3814C61.6913 51.5065 61.6663 51.6243 61.6413 51.7386C61.624 51.8226 61.6001 51.905 61.5699 51.9851C61.839 51.6922 62.1295 51.4017 62.4414 51.1135C62.7468 50.8306 63.0714 50.5692 63.413 50.3313C63.734 50.1067 64.0776 49.9163 64.4382 49.7633C64.769 49.6216 65.1249 49.5475 65.4848 49.5454C65.7266 49.5457 65.9672 49.5806 66.1992 49.649C66.4258 49.7132 66.6396 49.8159 66.8314 49.9526C67.0172 50.0859 67.1719 50.2577 67.2851 50.4563C67.4067 50.6743 67.4672 50.9211 67.4601 51.1707C67.4515 51.5628 67.3602 51.9486 67.1922 52.303C67.0028 52.7237 66.7781 53.1275 66.5207 53.5104C66.2516 53.9152 65.961 54.3093 65.6491 54.6927C65.3371 55.0761 65.0442 55.425 64.7704 55.7393L64.081 56.5394C63.9525 56.6649 63.8537 56.8174 63.7917 56.9859C63.7902 57.0804 63.8261 57.1715 63.8917 57.2395C63.9846 57.313 64.1024 57.3476 64.2203 57.336C64.4162 57.3108 64.6034 57.2398 64.7668 57.1288C65.1181 56.9133 65.4546 56.6746 65.7741 56.4144C66.2075 56.0739 66.7564 55.6178 67.4208 55.0463C67.878 54.6534 68.4103 54.1855 69.0139 53.6532L71.9001 26.9346C71.5059 27.1425 71.0934 27.3135 70.6678 27.4454C69.0291 27.9251 67.3525 28.2645 65.6562 28.4599V28.4599ZM49.5822 22.1267C37.1088 22.1267 27 23.5198 27 25.2415C27 26.9632 37.0802 28.3492 49.5822 28.3492C62.0842 28.3492 72.1644 26.9561 72.1644 25.2344C72.1644 23.5127 62.0414 22.1267 49.5822 22.1267ZM58.598 26.1524C58.598 26.556 57.3978 26.8668 55.9154 26.8668C54.433 26.8668 53.2328 26.5382 53.2328 26.1524C53.2328 25.7666 54.433 25.438 55.9154 25.438C57.3978 25.438 58.5872 25.7416 58.5872 26.1452L58.598 26.1524Z" fill="#DA4648"/>
<path d="M53.7617 25.8202C53.7486 25.8391 53.7411 25.8614 53.7402 25.8845C53.7402 26.1452 54.7082 26.356 55.8834 26.356C57.0586 26.356 58.0266 26.1452 58.0266 25.8845L60.8485 14.4541L72.0718 2.60572C72.3075 2.33782 71.8289 1.50554 71.0287 0.791142C70.2286 0.076741 69.3642 -0.162583 69.0963 0.108889L57.1622 12.6931L53.7617 25.8202Z" fill="#DA4648"/>
</svg>
