<svg width="100" height="100" viewBox="0 0 100 100" fill="none" xmlns="http://www.w3.org/2000/svg">
<path d="M90 10H10V90H90V10Z" fill="#F5DE19"/>
<path d="M63.7401 72.5C64.4218 73.8846 65.4808 75.0483 66.7951 75.8571C68.1094 76.6659 69.6255 77.0869 71.1687 77.0714C74.283 77.0714 76.2744 75.5143 76.2744 73.3571C76.2744 70.7857 74.2287 69.8657 70.8001 68.3657L68.9201 67.56C63.4916 65.2486 59.8916 62.3543 59.8916 56.2343C59.8916 50.5971 64.1773 46.3029 70.9001 46.3029C73.0764 46.1457 75.2508 46.6328 77.1521 47.7033C79.0534 48.7739 80.5974 50.3805 81.5916 52.3229L75.7144 56.08C75.3316 55.1169 74.6651 54.2929 73.8033 53.7174C72.9414 53.1418 71.925 52.8418 70.8887 52.8571C70.4366 52.8119 69.98 52.8613 69.5481 53.0022C69.1161 53.1432 68.7182 53.3726 68.3798 53.6758C68.0414 53.979 67.7699 54.3493 67.5825 54.7633C67.3951 55.1772 67.296 55.6256 67.2916 56.08C67.2916 58.3343 68.6887 59.2486 71.9144 60.6514L73.7944 61.4571C80.183 64.1971 83.7944 66.9886 83.7944 73.2657C83.7944 80.0343 78.4773 83.7428 71.3373 83.7428C68.5553 83.9201 65.7814 83.2885 63.3505 81.9242C60.9195 80.5599 58.9353 78.5213 57.6373 76.0543L63.7401 72.5ZM37.183 73.1514C38.363 75.2457 39.4373 77.0171 42.0201 77.0171C44.4887 77.0171 46.0487 76.0514 46.0487 72.2943V46.7314H53.5658V72.3943C53.5658 80.1771 48.9944 83.72 42.3401 83.72C39.988 83.8486 37.652 83.2624 35.6392 82.0385C33.6265 80.8146 32.0311 79.0104 31.063 76.8629L37.183 73.1514Z" fill="black"/>
</svg>
