<svg width="100" height="100" viewBox="0 0 100 100" fill="none" xmlns="http://www.w3.org/2000/svg">
<g clip-path="url(#clip0_9_128)">
<path d="M24.6803 26.0546C25.0422 25.4394 25.5126 24.8483 26.1881 24.5588C26.4656 24.5106 26.743 24.5347 27.0205 24.5347H40.6755C40.2774 24.8724 39.8914 25.2223 39.626 25.6806C38.9264 26.8266 38.4559 28.1053 38.0217 29.3839C36.7913 33.244 35.9348 37.2126 35.1025 41.1812C34.7285 42.9786 34.3667 44.788 34.0289 46.5854C32.9915 52.472 31.9179 58.3465 30.579 64.1728C29.9396 66.8628 29.2883 69.5528 28.2991 72.1463C27.8407 73.2199 27.3944 74.3658 26.5138 75.1619C26.3088 75.3429 26.1037 75.5721 25.8142 75.5359H13.7515C12.9312 75.5118 12.123 75.5841 11.3027 75.4997C11.8456 75.0775 12.3281 74.5709 12.6417 73.9677C13.5464 72.2428 14.1134 70.373 14.6562 68.5154C15.5006 65.5238 16.1761 62.4961 16.8154 59.4683C17.2135 57.478 17.6839 55.4997 17.9734 53.4973C18.2991 51.2657 18.7937 49.0582 19.1918 46.8387C19.819 43.5697 20.4825 40.3007 21.2183 37.0558C21.8094 34.5226 22.4125 32.0015 23.2207 29.5287C23.6188 28.3344 24.053 27.1523 24.6803 26.0546Z" fill="#EB7077" stroke="#EB7077" stroke-width="0.09375"/>
<path d="M40.6759 24.5347C41.0257 24.5347 41.3755 24.5226 41.7253 24.5347C42.4973 24.9448 43.1487 25.5962 43.5106 26.4044C43.9931 27.3212 44.3912 28.2862 44.7531 29.2753C45.9593 33.0027 46.7796 36.8387 47.5999 40.6626C48.2995 44.0884 48.963 47.5262 49.5902 50.9762C49.6385 51.1571 49.5782 51.4104 49.8194 51.4587C48.9509 55.9943 48.0944 60.5419 47.0088 65.0413C46.4177 67.4659 45.7905 69.8785 44.8978 72.2186C44.4153 73.3887 43.9207 74.6674 42.8954 75.4997C42.244 75.6445 41.7736 75.1499 41.3755 74.7036C40.6879 73.823 40.2657 72.7856 39.8556 71.7482C38.4925 68.0329 37.6602 64.1607 36.8158 60.3007C36.1765 57.2971 35.6095 54.2693 35.0184 51.2536C34.7531 49.7217 34.3912 48.2138 34.1861 46.6819C34.1499 46.6577 34.0655 46.6095 34.0293 46.5854C34.3671 44.788 34.7289 42.9786 35.1029 41.1812C35.9352 37.2126 36.7917 33.244 38.0221 29.3839C38.4563 28.1053 38.9268 26.8266 39.6264 25.6806C39.8918 25.2223 40.2778 24.8724 40.6759 24.5347Z" fill="#F6A2AD" stroke="#F6A2AD" stroke-width="0.09375"/>
<path d="M55.7659 26.6215C56.2002 25.7892 56.731 24.8604 57.6719 24.5468C62.4608 24.5226 67.2497 24.5347 72.0386 24.5347C71.5922 24.981 71.1218 25.4273 70.8202 25.9943C69.8914 27.6589 69.3486 29.5045 68.7937 31.326C67.3703 36.3441 66.3691 41.4708 65.4161 46.5974C64.5355 51.6517 63.5947 56.706 62.5211 61.7361C61.9662 64.2693 61.3872 66.7904 60.6514 69.2874C60.1809 70.8314 59.6863 72.3875 58.9143 73.823C58.5404 74.4744 58.1061 75.1861 57.3944 75.5238C52.8226 75.56 48.2388 75.5238 43.667 75.5359C43.4137 75.5359 43.1483 75.5359 42.895 75.4997C43.9204 74.6674 44.4149 73.3887 44.8974 72.2186C45.7901 69.8785 46.4173 67.4659 47.0084 65.0413C48.0941 60.5419 48.9505 55.9943 49.819 51.4587C50.8685 45.6083 51.9662 39.7578 53.3655 33.9798C54.0169 31.4828 54.6441 28.9496 55.7659 26.6215Z" fill="#EB7077" stroke="#EB7077" stroke-width="0.09375"/>
<path d="M72.0389 24.5347C72.425 24.5347 72.823 24.5226 73.209 24.5347C73.8363 24.8604 74.2826 25.4153 74.6807 25.9822C75.3321 27.0196 75.7422 28.1897 76.1644 29.3357C77.1656 32.4116 77.9135 35.5721 78.6011 38.7325C79.5178 42.9907 80.314 47.2729 81.098 51.5552C81.2911 52.5805 81.4841 53.6179 81.6047 54.6553C81.6529 54.7036 81.7494 54.8001 81.7856 54.8363C81.3514 55.4394 81.1825 56.1632 80.9412 56.8507C80.1813 59.2995 79.6867 61.8326 79.2645 64.3537C78.9388 66.332 78.4925 68.2983 77.8773 70.2042C77.4189 71.6155 76.864 73.0148 75.9473 74.1969C75.513 74.7639 74.9219 75.1981 74.2705 75.4876C73.2693 75.5962 72.6783 74.6312 72.1958 73.9195C71.1946 72.1704 70.6517 70.2162 70.0727 68.3103C68.1668 61.2536 66.9243 54.0281 65.5854 46.8507C65.5733 46.7422 65.513 46.6457 65.4165 46.5974C66.3695 41.4708 67.3707 36.3441 68.7941 31.326C69.349 29.5045 69.8918 27.6589 70.8206 25.9943C71.1222 25.4273 71.5926 24.981 72.0389 24.5347Z" fill="#F6A2AD" stroke="#F6A2AD" stroke-width="0.09375"/>
<path d="M0.012207 51.9774C0.325838 51.9533 0.639469 51.905 0.965162 51.905H14.1135C14.6684 51.9774 15.2474 51.9291 15.7782 52.1704C16.5502 52.484 17.2378 53.0148 17.7444 53.6782C17.8047 53.642 17.9133 53.5455 17.9736 53.4973C17.6841 55.4997 17.2137 57.478 16.8156 59.4683C16.1763 62.4961 15.5007 65.5238 14.6564 68.5154C14.1135 70.373 13.5466 72.2428 12.6419 73.9677C12.3283 74.5709 11.8457 75.0775 11.3029 75.4997C11.0979 75.5359 10.941 75.3911 10.7722 75.2826C10.2052 74.9207 9.87952 74.2934 9.5297 73.7265C7.8771 69.9629 7.69616 65.8013 6.67083 61.8688C6.15213 59.9026 5.51281 57.9484 4.57192 56.139C3.99291 55.0534 3.28121 54.016 2.35238 53.1837C1.6648 52.6288 0.868661 52.1825 0.012207 51.9774Z" fill="#F6A2AD" stroke="#F6A2AD" stroke-width="0.09375"/>
<path d="M82.8471 53.2319C83.6071 52.3755 84.741 51.8326 85.8869 51.8809H95.7783C97.1535 51.905 98.5407 51.8326 99.9159 51.9171C99.5057 52.1945 99.0112 52.3031 98.5769 52.5323C97.0691 53.2198 95.7783 54.3658 94.9581 55.8013C93.6432 58.0932 93.1849 60.7229 92.7989 63.3043C92.4128 65.8375 92.4249 68.4551 91.6046 70.9159C91.0498 72.6408 90.2054 74.3779 88.7458 75.5118C84.2102 75.56 79.6746 75.5238 75.1511 75.5359C74.8495 75.5359 74.56 75.548 74.2705 75.4876C74.9219 75.1981 75.513 74.7639 75.9472 74.1969C76.864 73.0148 77.4189 71.6155 77.8773 70.2042C78.4925 68.2983 78.9388 66.332 79.2645 64.3537C79.6867 61.8326 80.1812 59.2995 80.9412 56.8507C81.1824 56.1632 81.3513 55.4394 81.7856 54.8363C82.1475 54.3055 82.3887 53.6903 82.8471 53.2319Z" fill="#EB7077" stroke="#EB7077" stroke-width="0.09375"/>
</g>
<defs>
<clipPath id="clip0_9_128">
<rect width="100" height="100" fill="white"/>
</clipPath>
</defs>
</svg>
