<svg width="100" height="100" viewBox="0 0 100 100" fill="none" xmlns="http://www.w3.org/2000/svg">
<path d="M81.5939 54.9125C78.8461 54.9161 76.1351 55.5444 73.6658 56.75C72.8927 55.467 72.2957 54.0859 71.8908 52.6438C71.6582 51.5133 71.6044 50.3534 71.7314 49.2063C71.9986 47.944 72.3451 46.6998 72.7689 45.4812C72.7533 45.3219 72.5783 44.5687 70.8189 44.5437C69.0596 44.5187 67.5439 44.8781 67.3814 45.3438C67.0759 46.1942 66.8305 47.0651 66.6471 47.95C65.191 51.5422 63.3986 54.9888 61.2939 58.2438C60.1148 56.3106 59.6298 54.0333 59.9189 51.7875C60.1861 50.5252 60.5326 49.2811 60.9564 48.0625C60.9408 47.9031 60.7658 47.15 59.0064 47.125C57.2471 47.1 55.7314 47.4594 55.5689 47.925C55.4064 48.3906 55.2002 49.4875 54.8346 50.5312C54.4689 51.575 50.2002 61.1125 49.0814 63.5719C48.5064 64.8219 48.0096 65.8406 47.6596 66.5281C47.643 66.5728 47.622 66.6157 47.5971 66.6562C47.2846 67.2469 47.1189 67.5687 47.1189 67.5687V67.5844C46.8783 68.0156 46.6221 68.4156 46.4939 68.4156C46.2705 67.5228 46.2812 66.5874 46.5252 65.7C47.1502 62.3906 48.6814 57.2469 48.6658 57.0687C48.6658 56.9719 48.9533 56.0781 47.6752 55.6156C47.3788 55.4746 47.0459 55.4289 46.7224 55.4848C46.3989 55.5408 46.1008 55.6957 45.8689 55.9281C45.7564 55.9281 45.6783 56.2 45.6783 56.2C45.6783 56.2 47.0689 50.4156 43.0252 50.4156C41.4505 50.7324 39.955 51.3608 38.6268 52.2641C37.2985 53.1673 36.1643 54.327 35.2908 55.675C34.2033 56.2656 31.8877 57.5281 29.4096 58.8875C28.4721 59.4156 27.4908 59.9437 26.5814 60.45C26.5189 60.3875 26.4533 60.3062 26.3908 60.2437C21.4689 55 12.4221 51.3 12.8127 44.2844C12.9564 41.7281 13.8346 35.0156 30.1846 26.8625C43.6408 20.2312 54.3502 22.0687 56.2033 26.1437C58.8564 31.9625 50.4658 42.7656 36.5627 44.3312C35.0246 44.6433 33.436 44.6056 31.9144 44.2211C30.3929 43.8365 28.9772 43.1148 27.7721 42.1094C27.0377 41.3094 26.9252 41.2625 26.6533 41.4219C26.2064 41.6625 26.4939 42.3812 26.6533 42.7969C27.1837 43.7567 27.9011 44.6005 28.7631 45.2784C29.6251 45.9563 30.6142 46.4546 31.6721 46.7438C37.1416 47.9257 42.8441 47.3606 47.9752 45.1281C56.4127 41.8687 62.9752 32.8062 61.0502 25.2156C59.1158 17.5125 46.3314 14.9719 34.2314 19.2781C26.6525 21.8284 19.6497 25.8453 13.6221 31.1C6.95645 37.3344 5.90332 42.75 6.33457 45.0219C7.89707 53.0781 18.9939 58.3187 23.4346 62.2094C23.2096 62.3375 23.0033 62.45 22.8283 62.5437C20.6064 63.6469 12.1377 68.075 10.0158 72.7562C7.61895 78.0687 10.4002 81.8656 12.2377 82.3781C15.0065 83.0409 17.9131 82.8226 20.5518 81.7537C23.1905 80.6847 25.4296 78.8185 26.9564 76.4156C28.2566 74.4225 29.0558 72.1447 29.286 69.7762C29.5162 67.4077 29.1705 65.0186 28.2783 62.8125C28.2633 62.7768 28.2421 62.7441 28.2158 62.7156L29.9564 61.6938C31.0908 61.0219 32.2096 60.4 33.1689 59.8875C32.5184 61.7639 32.1365 63.7229 32.0346 65.7062C31.8137 68.7462 32.744 71.758 34.6408 74.1437C34.9294 74.3922 35.2645 74.5809 35.6266 74.6989C35.9887 74.8169 36.3706 74.8619 36.7502 74.8312C38.6252 74.8312 39.4846 73.2687 40.4252 71.4125C41.5752 69.1437 42.6127 66.5062 42.6127 66.5062C42.6127 66.5062 41.3189 73.6344 44.8346 73.6344C46.1127 73.6344 47.4064 71.9719 47.9846 71.1344V71.15C47.9846 71.15 48.0158 71.1031 48.0814 70.9906L48.2877 70.6563V70.625C48.8002 69.7313 49.9502 67.7 51.6596 64.3281C53.8658 59.9812 55.9908 54.5469 55.9908 54.5469C56.1958 55.7412 56.4787 56.9208 56.8377 58.0781C57.3524 59.481 57.9611 60.8477 58.6596 62.1687C58.1471 62.8875 57.8283 63.2875 57.8283 63.2875L57.8439 63.3031C57.4283 63.8469 56.9814 64.4375 56.4846 65.0125C55.0063 66.6378 53.6346 68.357 52.3783 70.1594C52.1917 70.4621 52.1275 70.8246 52.1989 71.1731C52.2703 71.5215 52.472 71.8295 52.7627 72.0344C53.4205 72.3767 54.1704 72.5004 54.9033 72.3875C56.0078 72.3251 57.0939 72.0769 58.1158 71.6531C59.1034 71.3056 60.035 70.8161 60.8814 70.2C61.754 69.5955 62.4564 68.7766 62.9211 67.8221C63.3857 66.8677 63.597 65.8097 63.5346 64.75C63.4363 63.4151 63.0953 62.1094 62.5283 60.8969C62.6877 60.6719 62.8408 60.45 62.9908 60.225C64.7675 57.5731 66.3688 54.8078 67.7846 51.9469C67.9895 53.1412 68.2724 54.3208 68.6314 55.4781C69.056 56.6905 69.5785 57.8662 70.1939 58.9938C68.15 60.5663 66.5401 62.6333 65.5158 65C64.5096 67.9094 65.2908 69.2187 66.7658 69.5219C67.5729 69.5775 68.3799 69.4122 69.1002 69.0437C70.1592 68.6957 71.1568 68.1832 72.0564 67.525C73.0051 66.9652 73.7996 66.1783 74.3685 65.2351C74.9375 64.2919 75.263 63.2221 75.3158 62.1219C75.2449 61.0236 74.9969 59.9441 74.5814 58.925C77.2786 57.8713 80.2031 57.5353 83.0689 57.95C90.6752 58.8438 92.1783 63.5906 91.8908 65.5906C91.756 66.2996 91.4709 66.9716 91.0548 67.5613C90.6387 68.1509 90.1011 68.6447 89.4783 69.0094C88.9502 69.3438 88.7752 69.4562 88.8221 69.6969C88.8846 70.05 89.1346 70.0312 89.5877 69.9687C90.7341 69.6124 91.7455 68.917 92.4886 67.9742C93.2317 67.0313 93.6716 65.8854 93.7502 64.6875C93.9908 60 89.5158 54.8594 81.6033 54.9062L81.5939 54.9125ZM22.9064 74.6875C20.3814 77.4375 16.8658 78.475 15.3471 77.5969C13.7158 76.6594 14.3564 72.5969 17.4564 69.6844C19.2953 68.029 21.2829 66.5467 23.3939 65.2562C23.7627 65.0312 24.3064 64.7125 24.9564 64.3188L25.1314 64.2219L25.5158 63.9813C26.0697 65.8369 26.1199 67.8064 25.6613 69.6878C25.2028 71.5692 24.252 73.2948 22.9064 74.6875V74.6875ZM41.2846 62.1875C40.4064 64.3281 38.5689 69.8125 37.4502 69.5063C36.4908 69.25 35.8877 65.0938 37.2596 60.9875C37.9522 59.0108 38.9612 57.1596 40.2471 55.5062C41.6221 53.9719 43.1408 53.4594 43.5064 54.0844C43.1729 56.8809 42.424 59.612 41.2846 62.1875V62.1875ZM56.4502 69.4438C56.0814 69.6344 55.7314 69.7563 55.5721 69.6688C55.4596 69.6063 55.7314 69.3563 55.7314 69.3563C55.7314 69.3563 57.6346 67.3094 58.3846 66.3844C58.8158 65.8406 59.3221 65.2031 59.8721 64.4813V64.6875C59.8721 67.1313 57.5064 68.7781 56.4533 69.45L56.4502 69.4438ZM68.1502 66.775C67.8783 66.5844 67.9252 65.9437 68.8377 63.9469C69.4722 62.6644 70.3586 61.5229 71.4439 60.5906C71.6103 61.0637 71.6969 61.5611 71.7002 62.0625C71.7125 63.1298 71.3712 64.1712 70.7296 65.0242C70.088 65.8772 69.1822 66.4939 68.1533 66.7781L68.1502 66.775Z" fill="#CD6799"/>
</svg>
