<svg width="288" height="50" viewBox="0 0 288 50" fill="none" xmlns="http://www.w3.org/2000/svg">
<g clip-path="url(#clip0_13_201)">
<path d="M26.4 22.28V39.52H23V21.08L26.4 22.28Z" fill="black"/>
<path d="M13.4004 20.76C13.2804 16.28 15.6404 13.96 18.7204 13.96C20.6004 13.96 22.0404 14.56 25.0804 16C27.3204 17.08 28.9604 17.88 30.6404 17.88C32.2404 17.88 33.0004 16.56 33.0404 14.12H35.7204C35.9604 19.12 33.4004 20.92 30.6004 20.92C28.8004 20.92 27.2004 20.4 24.1204 18.96C22.0004 17.92 20.3604 17 18.7604 17C17.1604 17 16.1604 18.12 16.1204 20.84H13.4004V20.76Z" fill="black"/>
<path d="M46.92 25.04C46.92 37.1682 37.0882 47 24.96 47C12.8318 47 3 37.1682 3 25.04C3 12.9118 12.8318 3.08 24.96 3.08C37.0882 3.08 46.92 12.9118 46.92 25.04Z" stroke="black" stroke-width="4" stroke-miterlimit="10"/>
<path d="M66.3688 16.5256V14.1818H82.7324V16.5256H75.8716V36H73.2296V16.5256H66.3688ZM86.4691 36V19.6364H88.9833V36H86.4691ZM87.7475 16.9091C87.2575 16.9091 86.8349 16.7422 86.4798 16.4084C86.1317 16.0746 85.9577 15.6733 85.9577 15.2045C85.9577 14.7358 86.1317 14.3345 86.4798 14.0007C86.8349 13.6669 87.2575 13.5 87.7475 13.5C88.2376 13.5 88.6566 13.6669 89.0046 14.0007C89.3597 14.3345 89.5373 14.7358 89.5373 15.2045C89.5373 15.6733 89.3597 16.0746 89.0046 16.4084C88.6566 16.7422 88.2376 16.9091 87.7475 16.9091ZM96.1025 14.1818V36H93.5882V14.1818H96.1025ZM106.886 36.3409C105.523 36.3409 104.319 35.9964 103.275 35.3075C102.231 34.6115 101.414 33.6314 100.825 32.3672C100.235 31.0959 99.9403 29.5938 99.9403 27.8608C99.9403 26.142 100.235 24.6506 100.825 23.3864C101.414 22.1222 102.234 21.1456 103.286 20.4567C104.337 19.7678 105.551 19.4233 106.929 19.4233C107.994 19.4233 108.836 19.6009 109.454 19.956C110.079 20.304 110.555 20.7017 110.881 21.1491C111.215 21.5895 111.474 21.9517 111.659 22.2358H111.872V14.1818H114.386V36H111.957V33.4858H111.659C111.474 33.7841 111.212 34.1605 110.871 34.6151C110.53 35.0625 110.043 35.4638 109.411 35.8189C108.779 36.1669 107.938 36.3409 106.886 36.3409ZM107.227 34.0824C108.236 34.0824 109.088 33.8196 109.784 33.294C110.48 32.7614 111.009 32.0263 111.371 31.0888C111.734 30.1442 111.915 29.054 111.915 27.8182C111.915 26.5966 111.737 25.5277 111.382 24.6115C111.027 23.6882 110.501 22.9709 109.805 22.4595C109.109 21.9411 108.25 21.6818 107.227 21.6818C106.162 21.6818 105.274 21.9553 104.564 22.5021C103.861 23.0419 103.332 23.777 102.977 24.7074C102.629 25.6307 102.455 26.6676 102.455 27.8182C102.455 28.983 102.632 30.0412 102.987 30.9929C103.349 31.9375 103.882 32.6903 104.585 33.2514C105.295 33.8054 106.176 34.0824 107.227 34.0824ZM124.156 36.3835C123.119 36.3835 122.178 36.1882 121.332 35.7976C120.487 35.3999 119.816 34.8281 119.319 34.0824C118.822 33.3295 118.573 32.4205 118.573 31.3551C118.573 30.4176 118.758 29.6577 119.127 29.0753C119.496 28.4858 119.99 28.0241 120.608 27.6903C121.226 27.3565 121.908 27.108 122.653 26.9446C123.406 26.7741 124.163 26.6392 124.923 26.5398C125.917 26.4119 126.723 26.3161 127.341 26.2521C127.966 26.1811 128.42 26.0639 128.705 25.9006C128.996 25.7372 129.141 25.4531 129.141 25.0483V24.9631C129.141 23.9119 128.854 23.0952 128.278 22.5128C127.71 21.9304 126.847 21.6392 125.69 21.6392C124.489 21.6392 123.548 21.902 122.866 22.4276C122.185 22.9531 121.705 23.5142 121.428 24.1108L119.042 23.2585C119.468 22.2642 120.036 21.4901 120.746 20.9361C121.464 20.375 122.245 19.9844 123.09 19.7642C123.942 19.5369 124.781 19.4233 125.604 19.4233C126.13 19.4233 126.734 19.4872 127.415 19.6151C128.104 19.7358 128.768 19.9879 129.408 20.3714C130.054 20.755 130.59 21.3338 131.016 22.108C131.442 22.8821 131.656 23.919 131.656 25.2188V36H129.141V33.7841H129.013C128.843 34.1392 128.559 34.5192 128.161 34.924C127.763 35.3288 127.234 35.6733 126.574 35.9574C125.913 36.2415 125.107 36.3835 124.156 36.3835ZM124.539 34.125C125.533 34.125 126.371 33.9297 127.053 33.5391C127.742 33.1484 128.261 32.6442 128.609 32.0263C128.964 31.4084 129.141 30.7585 129.141 30.0767V27.7756C129.035 27.9034 128.8 28.0206 128.438 28.1271C128.083 28.2266 127.671 28.3153 127.202 28.3935C126.741 28.4645 126.29 28.5284 125.849 28.5852C125.416 28.6349 125.065 28.6776 124.795 28.7131C124.141 28.7983 123.531 28.9368 122.962 29.1286C122.401 29.3132 121.947 29.5937 121.599 29.9702C121.258 30.3395 121.087 30.8437 121.087 31.483C121.087 32.3565 121.411 33.017 122.057 33.4645C122.71 33.9048 123.538 34.125 124.539 34.125ZM145.023 36V14.1818H152.395C154.107 14.1818 155.506 14.4908 156.593 15.1087C157.686 15.7195 158.496 16.5469 159.021 17.5909C159.547 18.6349 159.81 19.7997 159.81 21.0852C159.81 22.3707 159.547 23.5391 159.021 24.5902C158.503 25.6413 157.7 26.4794 156.614 27.1044C155.527 27.7223 154.135 28.0312 152.438 28.0312H147.154V25.6875H152.352C153.524 25.6875 154.465 25.4851 155.176 25.0803C155.886 24.6754 156.401 24.1286 156.72 23.4396C157.047 22.7436 157.21 21.9588 157.21 21.0852C157.21 20.2116 157.047 19.4304 156.72 18.7415C156.401 18.0526 155.882 17.5128 155.165 17.1222C154.448 16.7244 153.496 16.5256 152.31 16.5256H147.665V36H145.023ZM174.037 29.3097V19.6364H176.552V36H174.037V33.2301H173.867C173.483 34.0611 172.887 34.7678 172.077 35.3501C171.268 35.9254 170.245 36.2131 169.009 36.2131C167.986 36.2131 167.077 35.9893 166.282 35.5419C165.486 35.0874 164.861 34.4055 164.407 33.4964C163.952 32.5803 163.725 31.4261 163.725 30.0341V19.6364H166.239V29.8636C166.239 31.0568 166.573 32.0085 167.241 32.7188C167.915 33.429 168.775 33.7841 169.819 33.7841C170.444 33.7841 171.079 33.6243 171.726 33.3047C172.379 32.9851 172.926 32.495 173.366 31.8345C173.814 31.174 174.037 30.3324 174.037 29.3097ZM181.498 36V14.1818H184.012V22.2358H184.225C184.409 21.9517 184.665 21.5895 184.992 21.1491C185.326 20.7017 185.801 20.304 186.419 19.956C187.044 19.6009 187.89 19.4233 188.955 19.4233C190.333 19.4233 191.547 19.7678 192.598 20.4567C193.65 21.1456 194.47 22.1222 195.059 23.3864C195.649 24.6506 195.944 26.142 195.944 27.8608C195.944 29.5938 195.649 31.0959 195.059 32.3672C194.47 33.6314 193.653 34.6115 192.609 35.3075C191.565 35.9964 190.361 36.3409 188.998 36.3409C187.946 36.3409 187.105 36.1669 186.473 35.8189C185.841 35.4638 185.354 35.0625 185.013 34.6151C184.672 34.1605 184.409 33.7841 184.225 33.4858H183.926V36H181.498ZM183.969 27.8182C183.969 29.054 184.15 30.1442 184.512 31.0888C184.875 32.0263 185.404 32.7614 186.1 33.294C186.796 33.8196 187.648 34.0824 188.657 34.0824C189.708 34.0824 190.585 33.8054 191.288 33.2514C191.998 32.6903 192.531 31.9375 192.886 30.9929C193.248 30.0412 193.429 28.983 193.429 27.8182C193.429 26.6676 193.252 25.6307 192.897 24.7074C192.549 23.777 192.02 23.0419 191.309 22.5021C190.606 21.9553 189.722 21.6818 188.657 21.6818C187.634 21.6818 186.775 21.9411 186.078 22.4595C185.382 22.9709 184.857 23.6882 184.502 24.6115C184.147 25.5277 183.969 26.5966 183.969 27.8182ZM202.304 14.1818V36H199.789V14.1818H202.304ZM206.909 36V19.6364H209.423V36H206.909ZM208.187 16.9091C207.697 16.9091 207.274 16.7422 206.919 16.4084C206.571 16.0746 206.397 15.6733 206.397 15.2045C206.397 14.7358 206.571 14.3345 206.919 14.0007C207.274 13.6669 207.697 13.5 208.187 13.5C208.677 13.5 209.096 13.6669 209.444 14.0007C209.799 14.3345 209.977 14.7358 209.977 15.2045C209.977 15.6733 209.799 16.0746 209.444 16.4084C209.096 16.7422 208.677 16.9091 208.187 16.9091ZM225.619 23.3011L223.36 23.9403C223.218 23.5639 223.009 23.1982 222.732 22.843C222.462 22.4808 222.092 22.1825 221.624 21.9482C221.155 21.7138 220.555 21.5966 219.823 21.5966C218.822 21.5966 217.987 21.8274 217.32 22.2891C216.659 22.7436 216.329 23.3224 216.329 24.0256C216.329 24.6506 216.556 25.1442 217.011 25.5064C217.465 25.8686 218.175 26.1705 219.141 26.4119L221.57 27.0085C223.033 27.3636 224.124 27.907 224.841 28.6385C225.558 29.3629 225.917 30.2969 225.917 31.4403C225.917 32.3778 225.647 33.2159 225.107 33.9545C224.575 34.6932 223.829 35.2756 222.87 35.7017C221.911 36.1278 220.796 36.3409 219.525 36.3409C217.856 36.3409 216.474 35.9787 215.381 35.2543C214.287 34.5298 213.594 33.4716 213.303 32.0795L215.69 31.483C215.917 32.3636 216.347 33.0241 216.979 33.4645C217.618 33.9048 218.452 34.125 219.482 34.125C220.654 34.125 221.585 33.8764 222.273 33.3793C222.969 32.875 223.317 32.2713 223.317 31.5682C223.317 31 223.119 30.5241 222.721 30.1406C222.323 29.75 221.712 29.4588 220.888 29.267L218.161 28.6278C216.663 28.2727 215.562 27.7223 214.859 26.9766C214.163 26.2237 213.815 25.2827 213.815 24.1534C213.815 23.2301 214.074 22.4134 214.592 21.7031C215.118 20.9929 215.832 20.4354 216.734 20.0305C217.643 19.6257 218.673 19.4233 219.823 19.4233C221.442 19.4233 222.714 19.7784 223.637 20.4886C224.567 21.1989 225.228 22.1364 225.619 23.3011ZM232.216 26.1562V36H229.702V14.1818H232.216V22.1932H232.429C232.812 21.348 233.388 20.6768 234.155 20.1797C234.929 19.6754 235.959 19.4233 237.244 19.4233C238.359 19.4233 239.336 19.647 240.174 20.0945C241.012 20.5348 241.662 21.2131 242.123 22.1293C242.592 23.0384 242.827 24.196 242.827 25.6023V36H240.312V25.7727C240.312 24.473 239.975 23.468 239.3 22.7578C238.633 22.0405 237.706 21.6818 236.52 21.6818C235.696 21.6818 234.957 21.8558 234.304 22.2038C233.657 22.5518 233.146 23.0597 232.77 23.7273C232.4 24.3949 232.216 25.2045 232.216 26.1562ZM247.426 36V19.6364H249.94V36H247.426ZM248.705 16.9091C248.214 16.9091 247.792 16.7422 247.437 16.4084C247.089 16.0746 246.915 15.6733 246.915 15.2045C246.915 14.7358 247.089 14.3345 247.437 14.0007C247.792 13.6669 248.214 13.5 248.705 13.5C249.195 13.5 249.614 13.6669 249.962 14.0007C250.317 14.3345 250.494 14.7358 250.494 15.2045C250.494 15.6733 250.317 16.0746 249.962 16.4084C249.614 16.7422 249.195 16.9091 248.705 16.9091ZM257.059 26.1562V36H254.545V19.6364H256.974V22.1932H257.187C257.571 21.3622 258.153 20.6946 258.934 20.1903C259.716 19.679 260.724 19.4233 261.96 19.4233C263.068 19.4233 264.037 19.6506 264.868 20.1051C265.699 20.5526 266.346 21.2344 266.807 22.1506C267.269 23.0597 267.5 24.2102 267.5 25.6023V36H264.986V25.7727C264.986 24.4872 264.652 23.4858 263.984 22.7685C263.317 22.044 262.4 21.6818 261.236 21.6818C260.433 21.6818 259.716 21.8558 259.084 22.2038C258.459 22.5518 257.965 23.0597 257.603 23.7273C257.241 24.3949 257.059 25.2045 257.059 26.1562ZM278.699 42.4773C277.485 42.4773 276.441 42.321 275.567 42.0085C274.694 41.7031 273.966 41.2983 273.383 40.794C272.808 40.2969 272.35 39.7642 272.009 39.196L274.012 37.7898C274.239 38.0881 274.527 38.429 274.875 38.8125C275.223 39.2031 275.699 39.5405 276.302 39.8246C276.913 40.1158 277.712 40.2614 278.699 40.2614C280.02 40.2614 281.11 39.9418 281.97 39.3026C282.829 38.6634 283.259 37.6619 283.259 36.2983V32.9744H283.046C282.861 33.2727 282.598 33.642 282.257 34.0824C281.924 34.5156 281.441 34.9027 280.809 35.2436C280.184 35.5774 279.338 35.7443 278.273 35.7443C276.952 35.7443 275.766 35.4318 274.715 34.8068C273.671 34.1818 272.843 33.2727 272.233 32.0795C271.629 30.8864 271.327 29.4375 271.327 27.733C271.327 26.0568 271.622 24.5973 272.211 23.3544C272.801 22.1044 273.621 21.1385 274.672 20.4567C275.723 19.7678 276.938 19.4233 278.316 19.4233C279.381 19.4233 280.226 19.6009 280.851 19.956C281.483 20.304 281.966 20.7017 282.3 21.1491C282.641 21.5895 282.904 21.9517 283.088 22.2358H283.344V19.6364H285.773V36.4688C285.773 37.875 285.453 39.0185 284.814 39.8991C284.182 40.7869 283.33 41.4368 282.257 41.8487C281.192 42.2678 280.006 42.4773 278.699 42.4773ZM278.614 33.4858C279.623 33.4858 280.475 33.255 281.171 32.7933C281.867 32.3317 282.396 31.6676 282.758 30.8011C283.12 29.9347 283.301 28.8977 283.301 27.6903C283.301 26.5114 283.124 25.4709 282.769 24.5689C282.414 23.6669 281.888 22.9602 281.192 22.4489C280.496 21.9375 279.637 21.6818 278.614 21.6818C277.549 21.6818 276.661 21.9517 275.951 22.4915C275.248 23.0312 274.718 23.7557 274.363 24.6648C274.015 25.5739 273.841 26.5824 273.841 27.6903C273.841 28.8267 274.019 29.8317 274.374 30.7053C274.736 31.5717 275.269 32.2536 275.972 32.7507C276.682 33.2408 277.563 33.4858 278.614 33.4858Z" fill="black"/>
</g>
<defs>
<clipPath id="clip0_13_201">
<rect width="288" height="50" fill="white"/>
</clipPath>
</defs>
</svg>
