<svg width="100" height="100" viewBox="0 0 100 100" fill="none" xmlns="http://www.w3.org/2000/svg">
<path d="M50.0002 0.016655L94.1382 24.9837V74.9345L50.0002 99.9016L5.8623 74.9345V24.9837L50.0002 0.016655Z" fill="white"/>
<path d="M86.2601 73.2023L51.4661 92.9062V77.5828L73.1519 65.6406L86.2601 73.2023ZM88.6419 71.0537V29.8805L75.9168 37.2258V63.7085L88.6419 71.0537ZM13.6074 73.2023L48.4014 92.8895V77.5662L26.7155 65.6406L13.6074 73.2023ZM11.2256 71.0537V29.8805L23.9506 37.2258V63.7085L11.2256 71.0537ZM12.708 27.2156L48.4014 7.02876V21.8524L25.5329 34.4276L25.3497 34.5275L12.708 27.2156ZM87.1428 27.2156L51.4661 7.02876V21.8524L74.3178 34.4442L74.5011 34.5442L87.1428 27.2156Z" fill="#8ED6FB"/>
<path d="M48.4012 74.0851L27.0151 62.3094V39.0079L48.4012 51.3499V74.0851ZM51.4659 74.0851L72.852 62.3261V39.0079L51.4659 51.3499V74.0851ZM28.4475 36.3097L49.9335 24.5007L71.4029 36.3097L49.9335 48.7016L28.4475 36.3097Z" fill="#1C78C0"/>
</svg>
