<svg width="50" height="100" viewBox="0 0 50 100" fill="none" xmlns="http://www.w3.org/2000/svg">
<g clip-path="url(#clip0_16_239)">
<path fill-rule="evenodd" clip-rule="evenodd" d="M37 18.15V12H36.4375C34.4813 12 32.5875 12.3875 30.7563 13.1563C28.9336 13.9203 27.2856 15.0473 25.9125 16.4688C24.5762 17.8118 23.5278 19.4131 22.8313 21.175V21.1813C22.2112 22.8542 21.7957 24.596 21.5938 26.3688V26.3813C21.416 28.1733 21.3659 29.9758 21.4437 31.775C21.5187 33.5875 21.5563 35.4 21.5563 37.2063C21.5563 38.475 21.3062 39.6625 20.825 40.7813V40.7875C19.9077 42.9708 18.2002 44.7275 16.0438 45.7063C14.9441 46.1865 13.7562 46.4313 12.5562 46.425H12V52.575H12.5625C13.7812 52.575 14.9375 52.825 16.0375 53.3313L16.0438 53.3375C17.1563 53.825 18.1 54.4875 18.8875 55.325L18.9 55.3375C19.7125 56.15 20.3563 57.1188 20.8188 58.2438L20.825 58.2563C21.3125 59.3813 21.5563 60.5563 21.5563 61.7938C21.5563 63.6063 21.5187 65.4188 21.4437 67.225C21.3687 69.075 21.4188 70.8813 21.5938 72.6625V72.6687C21.8 74.4375 22.2125 76.1562 22.825 77.8187V77.825C23.4875 79.5312 24.5187 81.1 25.9125 82.5312C27.3062 83.9688 28.925 85.075 30.7563 85.8438C32.5875 86.6125 34.4812 87 36.4437 87H37V80.85H36.4375C35.1875 80.85 34.0188 80.6125 32.9188 80.1312C31.8577 79.6355 30.8912 78.9588 30.0625 78.1312C29.258 77.2748 28.605 76.2878 28.1312 75.2125C27.6687 74.0875 27.4438 72.9 27.4438 71.6313C27.4438 70.2063 27.4625 68.8 27.5125 67.4313C27.5625 66.0063 27.5625 64.6188 27.5125 63.275C27.4905 61.9353 27.3756 60.5988 27.1688 59.275C26.9699 57.9693 26.6175 56.6917 26.1187 55.4688C25.146 53.1023 23.5551 51.0408 21.5125 49.5C23.5574 47.96 25.1505 45.8984 26.125 43.5313C26.625 42.3313 26.9688 41.075 27.175 39.7688C27.3813 38.4563 27.4937 37.125 27.5187 35.7688C27.5687 34.3938 27.5687 33.0063 27.5187 31.6063C27.4687 30.2063 27.4438 28.7938 27.4438 27.3688C27.4329 25.5774 27.946 23.822 28.9198 22.3184C29.8937 20.8149 31.2858 19.6289 32.925 18.9063C34.0286 18.4002 35.2297 18.1421 36.4437 18.15H37ZM62 80.85V87H62.5625C64.5187 87 66.4125 86.6125 68.2437 85.8438C70.075 85.075 71.6938 83.9688 73.0875 82.5312C74.4813 81.0938 75.5125 79.5312 76.1688 77.825V77.8187C76.7938 76.1562 77.2 74.425 77.4062 72.6313V72.6188C77.5813 70.8688 77.6313 69.075 77.5563 67.225C77.4813 65.4125 77.4437 63.6 77.4437 61.7938C77.4437 60.525 77.6938 59.3375 78.175 58.2188V58.2125C79.0912 56.0285 80.7991 54.2715 82.9562 53.2938C84.0561 52.8142 85.2439 52.5694 86.4437 52.575H87V46.425H86.4375C85.2125 46.425 84.0562 46.175 82.9562 45.6688L82.95 45.6625C81.8769 45.2001 80.9093 44.5238 80.1063 43.675L80.0938 43.6625C79.2679 42.8305 78.6156 41.8426 78.175 40.7563V40.7438C77.6866 39.6285 77.4354 38.4238 77.4375 37.2063C77.4375 35.3938 77.475 33.5813 77.55 31.775C77.628 29.9612 77.5778 28.1442 77.4 26.3375V26.3313C77.1974 24.5715 76.784 22.8424 76.1688 21.1813V21.175C75.4704 19.4126 74.4198 17.8112 73.0812 16.4688C71.7081 15.0475 70.06 13.9205 68.2375 13.1563C66.4387 12.3923 64.5043 11.999 62.55 12H62V18.15H62.5625C63.8125 18.15 64.9813 18.3875 66.075 18.8688C67.1625 19.3813 68.1125 20.0438 68.9313 20.8688C69.725 21.7063 70.3688 22.6813 70.8625 23.7875C71.325 24.9125 71.55 26.1 71.55 27.3688C71.55 28.7938 71.5313 30.1938 71.4813 31.5688C71.4313 32.9938 71.4313 34.3813 71.4813 35.725C71.5063 37.1125 71.6187 38.4438 71.825 39.725C72.0312 41.0625 72.3812 42.325 72.875 43.5313C73.8498 45.8983 75.4428 47.9598 77.4875 49.5C75.4428 51.0402 73.8498 53.1017 72.875 55.4688C72.3799 56.6778 72.0276 57.9405 71.825 59.2313C71.6187 60.5438 71.5063 61.875 71.4813 63.2312C71.4307 64.6183 71.4307 66.0067 71.4813 67.3937C71.5313 68.7937 71.5563 70.2063 71.5563 71.6313C71.5663 73.4224 71.0529 75.1775 70.0791 76.6809C69.1054 78.1843 67.7137 79.3705 66.075 80.0938C64.9714 80.5998 63.7703 80.8579 62.5562 80.85H62Z" fill="black"/>
</g>
<defs>
<clipPath id="clip0_16_239">
<rect width="50" height="100" fill="white"/>
</clipPath>
</defs>
</svg>
