<svg width="100" height="100" viewBox="0 0 100 100" fill="none" xmlns="http://www.w3.org/2000/svg">
<g clip-path="url(#clip0_22_33)">
<path d="M0 100L8.6 74.2017C4.23621 66.8621 1.72414 58.2966 1.72414 49.1379C1.72414 22 23.7241 0 50.8621 0C78 0 100 22 100 49.1379C100 76.2759 78 98.2759 50.8621 98.2759C42.6052 98.2759 34.8293 96.2293 28 92.6328L0 100Z" fill="#2CB742"/>
<path d="M82.2121 65.4913C79.9431 61.2034 71.5759 56.3 71.5759 56.3C69.6828 55.2206 67.3983 55.1 66.319 57.0241C66.319 57.0241 63.6 60.2844 62.9087 60.7534C59.75 62.8931 56.8242 62.8103 53.8707 59.8568L47.0069 52.9931L40.1431 46.1293C37.1897 43.1758 37.1069 40.25 39.2466 37.0913C39.7156 36.4 42.9759 33.681 42.9759 33.681C44.9 32.6 44.7793 30.3172 43.7 28.4241C43.7 28.4241 38.7966 20.0569 34.5087 17.7879C32.6845 16.8224 30.4449 17.1603 28.9862 18.6189L25.9552 21.65C16.3397 31.2655 21.0742 42.1206 30.6897 51.7362L39.4776 60.5241L48.2656 69.312C57.8811 78.9275 68.7362 83.662 78.3518 74.0465L81.3828 71.0155C82.8414 69.5534 83.1776 67.3137 82.2121 65.4913Z" fill="white"/>
</g>
<defs>
<clipPath id="clip0_22_33">
<rect width="100" height="100" fill="white"/>
</clipPath>
</defs>
</svg>
