<svg width="50" height="100" viewBox="0 0 50 100" fill="none" xmlns="http://www.w3.org/2000/svg">
<g clip-path="url(#clip0_16_243)">
<path fill-rule="evenodd" clip-rule="evenodd" d="M-13 18.15V12H-13.5625C-15.5187 12 -17.4125 12.3875 -19.2437 13.1563C-21.0664 13.9203 -22.7144 15.0473 -24.0875 16.4688C-25.4238 17.8118 -26.4722 19.4131 -27.1687 21.175V21.1813C-27.7888 22.8542 -28.2043 24.596 -28.4062 26.3688V26.3813C-28.584 28.1733 -28.6341 29.9758 -28.5563 31.775C-28.4813 33.5875 -28.4437 35.4 -28.4437 37.2063C-28.4437 38.475 -28.6938 39.6625 -29.175 40.7813V40.7875C-30.0923 42.9708 -31.7998 44.7275 -33.9562 45.7063C-35.0559 46.1865 -36.2438 46.4313 -37.4438 46.425H-38V52.575H-37.4375C-36.2188 52.575 -35.0625 52.825 -33.9625 53.3313L-33.9562 53.3375C-32.8437 53.825 -31.9 54.4875 -31.1125 55.325L-31.1 55.3375C-30.2875 56.15 -29.6437 57.1188 -29.1812 58.2438L-29.175 58.2563C-28.6875 59.3813 -28.4437 60.5563 -28.4437 61.7938C-28.4437 63.6063 -28.4813 65.4188 -28.5563 67.225C-28.6313 69.075 -28.5812 70.8813 -28.4062 72.6625V72.6687C-28.2 74.4375 -27.7875 76.1562 -27.175 77.8187V77.825C-26.5125 79.5312 -25.4813 81.1 -24.0875 82.5312C-22.6938 83.9688 -21.075 85.075 -19.2437 85.8438C-17.4125 86.6125 -15.5188 87 -13.5563 87H-13V80.85H-13.5625C-14.8125 80.85 -15.9812 80.6125 -17.0812 80.1312C-18.1423 79.6355 -19.1088 78.9588 -19.9375 78.1312C-20.742 77.2748 -21.395 76.2878 -21.8688 75.2125C-22.3313 74.0875 -22.5562 72.9 -22.5562 71.6313C-22.5562 70.2063 -22.5375 68.8 -22.4875 67.4313C-22.4375 66.0063 -22.4375 64.6188 -22.4875 63.275C-22.5095 61.9353 -22.6244 60.5988 -22.8312 59.275C-23.0301 57.9693 -23.3825 56.6917 -23.8813 55.4688C-24.854 53.1023 -26.4449 51.0408 -28.4875 49.5C-26.4426 47.96 -24.8495 45.8984 -23.875 43.5313C-23.375 42.3313 -23.0312 41.075 -22.825 39.7688C-22.6187 38.4563 -22.5063 37.125 -22.4813 35.7688C-22.4313 34.3938 -22.4313 33.0063 -22.4813 31.6063C-22.5313 30.2063 -22.5562 28.7938 -22.5562 27.3688C-22.5671 25.5774 -22.054 23.822 -21.0802 22.3184C-20.1063 20.8149 -18.7142 19.6289 -17.075 18.9063C-15.9714 18.4002 -14.7703 18.1421 -13.5563 18.15H-13ZM12 80.85V87H12.5625C14.5187 87 16.4125 86.6125 18.2437 85.8438C20.075 85.075 21.6938 83.9688 23.0875 82.5312C24.4813 81.0938 25.5125 79.5312 26.1688 77.825V77.8187C26.7938 76.1562 27.2 74.425 27.4062 72.6313V72.6188C27.5813 70.8688 27.6313 69.075 27.5563 67.225C27.4813 65.4125 27.4437 63.6 27.4437 61.7938C27.4437 60.525 27.6938 59.3375 28.175 58.2188V58.2125C29.0912 56.0285 30.7991 54.2715 32.9562 53.2938C34.0561 52.8142 35.2439 52.5694 36.4437 52.575H37V46.425H36.4375C35.2125 46.425 34.0562 46.175 32.9562 45.6688L32.95 45.6625C31.8769 45.2001 30.9093 44.5238 30.1063 43.675L30.0938 43.6625C29.2679 42.8305 28.6156 41.8426 28.175 40.7563V40.7438C27.6866 39.6285 27.4354 38.4238 27.4375 37.2063C27.4375 35.3938 27.475 33.5813 27.55 31.775C27.628 29.9612 27.5778 28.1442 27.4 26.3375V26.3313C27.1974 24.5715 26.784 22.8424 26.1688 21.1813V21.175C25.4704 19.4126 24.4198 17.8112 23.0812 16.4688C21.7081 15.0475 20.06 13.9205 18.2375 13.1563C16.4387 12.3923 14.5043 11.999 12.55 12H12V18.15H12.5625C13.8125 18.15 14.9813 18.3875 16.075 18.8688C17.1625 19.3813 18.1125 20.0438 18.9313 20.8688C19.725 21.7063 20.3688 22.6813 20.8625 23.7875C21.325 24.9125 21.55 26.1 21.55 27.3688C21.55 28.7938 21.5313 30.1938 21.4813 31.5688C21.4313 32.9938 21.4313 34.3813 21.4813 35.725C21.5063 37.1125 21.6187 38.4438 21.825 39.725C22.0312 41.0625 22.3812 42.325 22.875 43.5313C23.8498 45.8983 25.4428 47.9598 27.4875 49.5C25.4428 51.0402 23.8498 53.1017 22.875 55.4688C22.3799 56.6778 22.0276 57.9405 21.825 59.2313C21.6187 60.5438 21.5063 61.875 21.4813 63.2312C21.4307 64.6183 21.4307 66.0067 21.4813 67.3937C21.5313 68.7937 21.5563 70.2063 21.5563 71.6313C21.5663 73.4224 21.0529 75.1775 20.0791 76.6809C19.1054 78.1843 17.7137 79.3705 16.075 80.0938C14.9714 80.5998 13.7703 80.8579 12.5562 80.85H12Z" fill="black"/>
</g>
<defs>
<clipPath id="clip0_16_243">
<rect width="50" height="100" fill="white"/>
</clipPath>
</defs>
</svg>
