<svg width="100" height="100" viewBox="0 0 100 100" fill="none" xmlns="http://www.w3.org/2000/svg">
<path fill-rule="evenodd" clip-rule="evenodd" d="M66.4281 17.9047C67.1118 16.1954 66.2804 14.2555 64.5712 13.5718C62.8618 12.8881 60.922 13.7195 60.2382 15.4288L33.5716 82.0953C32.8878 83.8047 33.7192 85.7447 35.4285 86.428C37.1378 87.112 39.0777 86.2807 39.7614 84.5713L66.4281 17.9047ZM25.6902 34.3097C26.992 35.6115 26.992 37.722 25.6902 39.0237L14.7139 50.0001L25.6902 60.9764C26.992 62.2781 26.992 64.3887 25.6902 65.6904C24.3884 66.992 22.2779 66.992 20.9762 65.6904L7.64283 52.3571C6.34106 51.0553 6.34106 48.9448 7.64283 47.6431L20.9762 34.3097C22.2779 33.008 24.3884 33.008 25.6902 34.3097ZM74.3092 34.3097C75.6112 33.008 77.7218 33.008 79.0238 34.3097L92.3572 47.6431C93.6585 48.9448 93.6585 51.0553 92.3572 52.3571L79.0238 65.6904C77.7218 66.992 75.6112 66.992 74.3092 65.6904C73.0078 64.3887 73.0078 62.2781 74.3092 60.9764L85.2858 50.0001L74.3092 39.0237C73.0078 37.722 73.0078 35.6115 74.3092 34.3097Z" fill="black"/>
</svg>
