<svg width="100" height="100" viewBox="0 0 100 100" fill="none" xmlns="http://www.w3.org/2000/svg">
<path d="M37.5 87C44.4 87 50 81.4 50 74.5V62H37.5C30.6 62 25 67.6 25 74.5C25 81.4 30.6 87 37.5 87Z" fill="#0ACF83"/>
<path d="M25 49.5C25 42.6 30.6 37 37.5 37H50V62H37.5C30.6 62 25 56.4 25 49.5Z" fill="#A259FF"/>
<path d="M25 24.5C25 17.6 30.6 12 37.5 12H50V37H37.5C30.6 37 25 31.4 25 24.5Z" fill="#F24E1E"/>
<path d="M50 12H62.5C69.4 12 75 17.6 75 24.5C75 31.4 69.4 37 62.5 37H50V12Z" fill="#FF7262"/>
<path d="M75 49.5C75 56.4 69.4 62 62.5 62C55.6 62 50 56.4 50 49.5C50 42.6 55.6 37 62.5 37C69.4 37 75 42.6 75 49.5Z" fill="#1ABCFE"/>
</svg>
