<svg width="100" height="100" viewBox="0 0 100 100" fill="none" xmlns="http://www.w3.org/2000/svg">
<path d="M85.3336 19.6028L78.8957 91.7247L49.9566 99.7474L21.0973 91.7357L14.666 19.6028H85.3336Z" fill="#E44D26"/>
<path d="M50 93.615L73.3842 87.1321L78.8856 25.5005H50V93.615Z" fill="#F16529"/>
<path d="M37.4848 43.1945H50.0001V34.3477H27.8164L28.028 36.7211L30.2026 61.1006H50.0001V52.2537H38.2934L37.4848 43.1945V43.1945ZM39.4787 65.5241H30.5978L31.8372 79.415L49.9593 84.4454L50.0001 84.4344V75.2299L49.9613 75.2402L40.1087 72.5798L39.4787 65.5241V65.5241Z" fill="#EBEBEB"/>
<path d="M21.2412 2H25.7371V6.44183H29.8498V2H34.3459V15.451H29.8501V10.9468H25.7373V15.451H21.2415V2H21.2412ZM40.2578 6.46066H36.3005V2H48.7143V6.46066H44.7545V15.451H40.2587V6.46066H40.2584H40.2578ZM50.6844 2H55.3722L58.2559 6.72632L61.1368 2H65.8265V15.451H61.349V8.78393L58.2559 13.5665H58.1783L55.0833 8.78393V15.451H50.6844V2ZM68.0639 2H72.5612V11.005H78.8836V15.451H68.0636V2H68.0639Z" fill="black"/>
<path d="M49.9695 61.1006H60.8634L59.8363 72.5743L49.9692 75.2374V84.4413L68.1058 79.415L68.2388 77.9202L70.318 54.6294L70.5338 52.2537H49.9695V61.1006ZM49.9695 43.1729V43.1945H71.3388L71.5161 41.2061L71.9194 36.7211L72.1307 34.3477H49.9695V43.1731V43.1729Z" fill="white"/>
</svg>
