<svg width="100" height="100" viewBox="0 0 100 100" fill="none" xmlns="http://www.w3.org/2000/svg">
<path d="M50 90C72.0914 90 90 72.0914 90 50C90 27.9086 72.0914 10 50 10C27.9086 10 10 27.9086 10 50C10 72.0914 27.9086 90 50 90Z" fill="#006775"/>
<path d="M89.7028 55.1528L75.0372 40.4872C71.503 36.4905 62.915 31.503 53.9306 40.2889L49.6365 36.1602H38.9678V41.5772L35.4995 37.9439L28.6292 36.8209L25.2931 41.7425L33.3195 50.1983L34.3105 57.9936L28.464 52.015L23.5425 58.7863L54.5581 89.8019C72.824 87.7209 87.3575 73.3856 89.7025 55.1859V55.1528H89.7028V55.1528Z" fill="#055661"/>
<path d="M64.4011 35.1692V35.2022C57.2666 35.2022 51.0898 40.9495 51.0898 48.5134C51.0898 54.1287 54.6242 59.1494 59.9091 61.032C61.3625 61.5275 62.8489 61.7917 64.4012 61.7917C71.5358 61.7917 77.7125 56.0444 77.7125 48.4805C77.7125 40.9827 71.6019 35.1692 64.4011 35.1692ZM74.3433 41.9406C75.4002 43.5922 76.0939 45.5409 76.2259 47.6219H73.8478C73.7488 45.8052 73.2533 44.1206 72.5266 42.5681H72.4936C73.1212 42.3698 73.7487 42.1719 74.3433 41.9406ZM73.3855 40.6523C72.8239 40.8506 72.2625 41.0156 71.7008 41.1478C70.5116 39.3311 68.8931 37.8447 67.0105 36.7878C69.5208 37.3823 71.7669 38.7366 73.3855 40.6523ZM68.1666 49.2403H72.4606C72.3616 50.6936 71.9981 52.0808 71.4367 53.3691C70.2806 53.0719 69.0916 52.8736 67.8694 52.7084C68.0345 51.5856 68.1336 50.4295 68.1666 49.2403ZM67.7702 43.5259C68.9262 43.3937 70.0492 43.1956 71.1392 42.9314C71.8659 44.3517 72.3284 45.9372 72.4605 47.6217H68.1664C68.1336 46.2016 68.0014 44.8472 67.7702 43.5259ZM70.2805 41.4781C69.3556 41.6764 68.4308 41.8084 67.4728 41.9075C67.1425 40.4872 66.7461 39.133 66.2177 37.8778C67.8364 38.7366 69.2236 39.9917 70.2805 41.4781ZM66.1847 43.6252C66.383 44.9133 66.515 46.2345 66.548 47.5889H62.4192C62.4522 46.2347 62.5844 44.9133 62.7825 43.6583C63.278 43.6912 63.7734 43.6912 64.2689 43.6912C64.8964 43.6912 65.5241 43.6581 66.1516 43.6252V43.6253L66.1847 43.6252ZM58.6539 43.1958C59.5128 43.3609 60.3716 43.493 61.2633 43.5922C61.065 44.8803 60.933 46.2345 60.8669 47.655H57.4648C57.5639 46.0695 57.9933 44.5831 58.6541 43.2289L58.6539 43.1958ZM60.8669 49.2734C60.8998 50.4295 60.9991 51.5856 61.1641 52.7087C60.2061 52.8078 59.2814 52.94 58.3895 53.1381C57.8941 51.9489 57.5637 50.6278 57.4647 49.2736L60.8669 49.2734ZM61.3953 54.2939C61.6595 55.6811 62.0559 57.0025 62.5183 58.2245C61.1641 57.2666 59.975 56.0114 59.1162 54.5911C59.8759 54.4591 60.6356 54.36 61.3953 54.2939ZM61.5605 42.0066C60.8667 41.9405 60.1733 41.8414 59.5127 41.7423C60.3384 40.5533 61.3623 39.4962 62.5514 38.6705C62.155 39.7273 61.8247 40.8505 61.5605 42.0066ZM63.0802 42.0395C63.0827 42.0395 63.085 42.0397 63.0875 42.0397C63.4178 40.4666 63.9097 38.9914 64.4673 37.6466C65.0287 39.0008 65.5242 40.4872 65.8545 42.0395C65.3259 42.0725 64.7975 42.0725 64.2691 42.0725C63.8752 42.0725 63.4812 42.04 63.0873 42.0397C63.085 42.0508 63.0823 42.0616 63.08 42.0727V42.0395C63.0802 42.0395 63.08 42.0395 63.0802 42.0395ZM62.5184 36.6558C62.6836 36.6887 62.8817 36.7219 63.0469 36.7548C60.9991 37.8777 59.2814 39.4962 58.0592 41.4451C57.1012 41.2469 56.1766 40.9826 55.3177 40.6855C57.1345 38.5714 59.6447 37.0852 62.5184 36.6558ZM54.3598 41.9736C55.2847 42.3369 56.2755 42.6342 57.2997 42.8984C56.6391 44.3519 56.2097 45.9372 56.1105 47.6219H52.4772C52.6092 45.5409 53.3028 43.625 54.3598 41.9736ZM52.4772 49.2403H56.1105C56.2095 50.6937 56.5398 52.1139 57.0684 53.402L57.0353 53.435C55.9784 53.6992 54.9875 54.0295 54.0295 54.393C53.1378 52.8737 52.5762 51.1231 52.4772 49.2403ZM62.4855 60.2394C59.4136 59.7441 56.705 58.0925 54.8884 55.7142C55.7803 55.3839 56.7381 55.1197 57.7291 54.8884C58.9512 57.1016 60.8009 58.9181 63.0139 60.1403C62.8487 60.1733 62.6505 60.2064 62.4855 60.2394ZM64.4342 59.1495C63.7777 57.6066 63.2845 55.9327 62.9217 54.1286C62.9195 54.1287 62.917 54.1287 62.9148 54.1291H62.9147H62.9148V54.0959C62.917 54.1069 62.9195 54.1177 62.9217 54.1286C63.3491 54.0961 63.8087 54.0961 64.2359 54.0961C64.7975 54.0961 65.392 54.1291 65.9536 54.1291C65.5903 55.9125 65.0948 57.597 64.4342 59.1495ZM64.2361 52.4773C63.7075 52.4773 63.1791 52.4773 62.6506 52.5103C62.5186 51.4533 62.4194 50.3303 62.3864 49.2073V49.2072V49.2073H66.4822C66.4492 50.3633 66.3831 51.4534 66.218 52.5434C65.5573 52.5103 64.8966 52.4773 64.2361 52.4773ZM67.6381 54.327C68.695 54.4261 69.7191 54.6242 70.6769 54.8225C69.587 56.5402 68.0345 57.9934 66.2509 58.9512C66.8455 57.4978 67.3078 55.9455 67.6381 54.327ZM67.0437 60.0742C69.1245 58.9181 70.8752 57.2006 72.0644 55.1528C72.6589 55.318 73.2536 55.5161 73.815 55.7142C72.1634 57.8611 69.7852 59.4467 67.0437 60.0742ZM72.7909 53.7325C73.3855 52.3453 73.7819 50.8259 73.8809 49.2403H76.2591C76.1269 51.1228 75.5653 52.8736 74.6736 54.393C74.0461 54.1619 73.4186 53.9306 72.7909 53.7325Z" fill="#00CC96"/>
<path d="M65.0617 42.7991C68.37 42.7991 71.0736 45.5027 71.0736 48.8109C71.0736 52.1192 68.37 54.8228 65.0617 54.8228C61.7534 54.8228 59.0498 52.1192 59.0498 48.8109C59.0498 45.5027 61.7532 42.7991 65.0617 42.7991Z" fill="#00CC96"/>
<path d="M78.6046 67.8697L72.1968 56.7384C71.9986 56.4411 71.6022 56.342 71.3049 56.5072L71.0407 56.6723L70.0497 54.9876V54.9878H70.0165C71.5029 53.7987 72.5597 52.1142 72.89 50.0994C73.6168 45.8055 70.71 41.7097 66.383 40.983C62.0891 40.2562 57.9933 43.163 57.2666 47.49C56.5399 51.7839 59.4466 55.8797 63.7736 56.6064C65.2271 56.8376 66.7135 56.6723 68.0016 56.1439L68.9925 57.8286L68.7283 57.9937C68.431 58.1919 68.3319 58.5883 68.4971 58.8856L74.905 70.0169C75.1032 70.3142 75.4996 70.4133 75.7969 70.2481L78.3733 68.7617C78.6707 68.5634 78.7697 68.1669 78.6046 67.8697ZM65.1955 54.4141C62.035 54.4141 59.4729 51.8519 59.4729 48.6914C59.4729 45.5309 62.035 42.9687 65.1955 42.9687C68.356 42.9687 70.9182 45.5309 70.9182 48.6914C70.9182 51.8519 68.356 54.4141 65.1955 54.4141Z" fill="#F7F7F8"/>
<path d="M61.4287 47.787C61.3957 48.0183 61.1975 48.1503 60.9993 48.1173C60.8342 48.0844 60.7021 47.9191 60.7021 47.7541C60.7021 47.688 60.7351 47.6219 60.7351 47.5228C61.1315 45.1117 63.4437 43.46 65.8548 43.8566C65.9209 43.8566 65.987 43.8895 66.0531 43.8895H66.0861C66.3173 43.9225 66.4493 44.1208 66.4164 44.352C66.3834 44.5503 66.1851 44.7153 65.9539 44.6823C65.8878 44.6494 65.7887 44.6494 65.7226 44.6494C63.7407 44.3191 61.8251 45.6733 61.4946 47.6551C61.4946 47.6881 61.4946 47.7212 61.4617 47.7873H61.4286L61.4287 47.787Z" fill="#F7F7F8"/>
<path d="M71.3376 56.4739L68.9925 57.8281L68.7283 57.9933C68.4311 58.1584 68.3319 58.5548 68.497 58.8851L74.905 70.0164C75.0701 70.3136 75.4665 70.4128 75.7969 70.2476L78.3733 68.7612C78.6705 68.5961 78.7697 68.1997 78.6045 67.8694L72.1967 56.7381C72.0315 56.4409 71.6683 56.3417 71.3709 56.4739H71.3376V56.4739Z" fill="#E84F4F"/>
<path d="M71.0077 56.6722L71.2719 56.507C71.5691 56.3419 71.9657 56.4409 72.1638 56.7383L78.5718 67.8695C78.7369 68.1667 78.6379 68.5633 78.3405 68.7614L77.0524 69.5211L70.083 57.2008L71.0077 56.6722Z" fill="#C94545"/>
<path d="M36.3915 43.5591V42.5681C36.3915 40.5863 36.1932 39.1661 35.7969 38.3402C35.4005 37.5144 34.6408 36.8208 33.4518 36.2592C32.2626 35.7308 30.8424 35.4334 29.1247 35.4334C27.5724 35.4334 26.2841 35.6647 25.161 36.1931C24.071 36.6886 23.2783 37.3824 22.7829 38.2741C22.2874 39.1658 22.0562 40.5531 22.0562 42.4691C22.0562 43.7903 22.2213 44.8803 22.5846 45.7391C22.9149 46.5978 23.3772 47.2584 23.8727 47.7539C24.4012 48.2494 25.4582 49.0091 27.0768 50.0991C28.6952 51.1559 29.6862 51.9158 30.1155 52.3781C30.5119 52.8406 30.7101 53.7984 30.7101 55.2517C30.7101 55.9124 30.611 56.4078 30.3797 56.7711C30.1815 57.1014 29.8513 57.2666 29.4218 57.2666C28.9924 57.2666 28.6951 57.1344 28.5299 56.8702C28.3647 56.6059 28.2657 56.0114 28.2657 55.0534V52.0149H22.2213V53.6663C22.2213 55.5489 22.4196 57.0024 22.7829 57.9933C23.1793 59.0172 23.9721 59.843 25.194 60.5036C26.4158 61.1642 27.9026 61.4945 29.6532 61.4945C31.2387 61.4945 32.626 61.1974 33.8149 60.6358C35.0041 60.0742 35.7968 59.3477 36.226 58.5219C36.6554 57.6631 36.8535 56.375 36.8535 54.5913C36.8535 52.1469 36.4902 50.3633 35.7305 49.2733C34.9708 48.1833 33.1541 46.763 30.2805 45.0453C29.2896 44.4508 28.6621 43.9224 28.4308 43.5259C28.1996 43.0966 28.1005 42.4691 28.1005 41.6433C28.1005 40.9827 28.1996 40.5203 28.3977 40.1899C28.5958 39.8594 28.8932 39.6944 29.2896 39.6944C29.6529 39.6944 29.9171 39.8266 30.0493 40.0577C30.2144 40.2889 30.2805 40.8503 30.2805 41.7092V43.5589H36.3252H36.3915V43.5591ZM39.0008 35.962V60.9661H50.2972V55.9784H45.5079V50.4622H49.5707V45.7058H45.5079V40.9164H49.8349V35.9288H39.0008V35.962V35.962Z" fill="#00CC96"/>
</svg>
