<svg width="100" height="100" viewBox="0 0 100 100" fill="none" xmlns="http://www.w3.org/2000/svg">
<path d="M90.6562 15.7187L72.6374 7.04374C71.6198 6.5531 70.4748 6.3912 69.3611 6.58045C68.2474 6.76971 67.2202 7.30076 66.4218 8.09999L7.43741 61.875C6.72175 62.5244 6.29337 63.4314 6.24648 64.3966C6.1996 65.3619 6.53806 66.3062 7.18741 67.0219C7.26553 67.1062 7.34366 67.1875 7.42803 67.2625L12.2437 71.6375C12.8729 72.2102 13.6829 72.5444 14.5329 72.5821C15.3829 72.6198 16.2193 72.3585 16.8968 71.8437L87.9437 17.9687C88.4803 17.5615 89.1199 17.3122 89.7906 17.2488C90.4613 17.1854 91.1363 17.3105 91.7397 17.6099C92.3432 17.9093 92.851 18.3713 93.2062 18.9437C93.5613 19.5161 93.7496 20.1763 93.7499 20.85V20.6406C93.7498 19.6122 93.4595 18.6046 92.9122 17.7339C92.3649 16.8632 91.5829 16.1647 90.6562 15.7187V15.7187Z" fill="#0065A9"/>
<path d="M90.6562 84.2812L72.6374 92.9594C71.6195 93.4486 70.4749 93.6098 69.3615 93.4206C68.2481 93.2314 67.2209 92.7011 66.4218 91.9031L7.43741 38.125C6.72175 37.4756 6.29337 36.5686 6.24648 35.6033C6.1996 34.6381 6.53806 33.6938 7.18741 32.9781C7.26553 32.8937 7.34366 32.8125 7.42803 32.7375L12.2437 28.3625C12.8736 27.7874 13.6854 27.4517 14.5375 27.414C15.3896 27.3763 16.2279 27.639 16.9062 28.1562L87.9437 82.0312C88.4803 82.4385 89.1199 82.6878 89.7906 82.7512C90.4613 82.8146 91.1363 82.6895 91.7397 82.3901C92.3432 82.0906 92.851 81.6287 93.2062 81.0563C93.5613 80.4838 93.7496 79.8236 93.7499 79.15V79.375C93.7465 80.4007 93.4546 81.4047 92.9075 82.2724C92.3604 83.14 91.5802 83.8361 90.6562 84.2812V84.2812Z" fill="#007ACC"/>
<path d="M72.6373 92.9594C71.6194 93.4486 70.4748 93.6098 69.3614 93.4206C68.248 93.2314 67.2208 92.7011 66.4217 91.9031C66.8704 92.346 67.4399 92.6466 68.0588 92.7673C68.6777 92.8879 69.3184 92.8232 69.9007 92.5813C70.4829 92.3394 70.9809 91.931 71.332 91.4074C71.6832 90.8837 71.872 90.268 71.8748 89.6375V10.3625C71.8753 9.72902 71.6878 9.10965 71.336 8.58283C70.9843 8.05601 70.484 7.64545 69.8987 7.40316C69.3134 7.16087 68.6694 7.09776 68.0482 7.22181C67.427 7.34586 66.8565 7.65149 66.4092 8.1C67.2077 7.30106 68.2347 6.76998 69.3482 6.5802C70.4618 6.39041 71.6067 6.5513 72.6248 7.04062L90.6404 15.7031C91.5701 16.1469 92.3553 16.8444 92.9054 17.7153C93.4556 18.5862 93.7483 19.5949 93.7498 20.625V79.375C93.7501 80.4043 93.4595 81.4127 92.9116 82.2841C92.3637 83.1554 91.5807 83.8542 90.6529 84.3L72.6373 92.9594Z" fill="#1F9CF0"/>
</svg>
