<svg width="223" height="50" viewBox="0 0 223 50" fill="none" xmlns="http://www.w3.org/2000/svg">
<g clip-path="url(#clip0_13_203)">
<g clip-path="url(#clip1_13_203)">
<path d="M0.000976562 24.9992C0.000976562 34.894 5.75079 43.4462 14.09 47.4969L2.16462 14.8253C0.779177 17.9333 0.000976562 21.3743 0.000976562 24.9992Z" fill="#1C769B"/>
<path d="M25.4389 27.1854L17.9375 48.9815C20.1786 49.6403 22.5454 50 25.0002 50C27.9106 50 30.7032 49.4968 33.3015 48.5831C33.2354 48.475 33.1733 48.363 33.1233 48.2388L25.4389 27.1854Z" fill="#1C769B"/>
<path d="M41.8771 23.7388C41.8771 20.6477 40.7658 18.5091 39.8158 16.8446C38.5473 14.7826 37.3587 13.0391 37.3587 10.9811C37.3587 8.68198 39.1014 6.54253 41.5569 6.54253C41.6682 6.54253 41.773 6.55785 41.8795 6.5635C37.4353 2.48782 31.508 0 25.0002 0C16.265 0 8.58298 4.48131 4.11377 11.2674C4.70085 11.2859 5.25325 11.298 5.72178 11.298C8.33541 11.298 12.3853 10.9803 12.3853 10.9803C13.732 10.8996 13.8901 12.881 12.5433 13.0391C12.5433 13.0391 11.1893 13.1988 9.68214 13.2786L18.7859 40.356L24.2575 23.9484L20.3649 13.2786C19.0165 13.1988 17.7408 13.0391 17.7408 13.0391C16.394 12.9593 16.5513 10.9005 17.9004 10.9803C17.9004 10.9803 22.0285 11.298 24.4849 11.298C27.0993 11.298 31.1476 10.9803 31.1476 10.9803C32.4959 10.8996 32.654 12.881 31.3064 13.0391C31.3064 13.0391 29.9508 13.1988 28.446 13.2786L37.4804 40.1503L39.9763 31.8191C41.0529 28.3596 41.8771 25.8774 41.8771 23.7388Z" fill="#1C769B"/>
<path d="M47.1069 15.5761C47.1069 18.1123 46.6328 20.9638 45.2046 24.5307L37.5693 46.6066C45.0014 42.2744 49.9996 34.2215 49.9996 25C49.9996 20.6526 48.8891 16.5664 46.9376 13.0052C47.0464 13.802 47.1069 14.6552 47.1069 15.5761Z" fill="#1C769B"/>
<path d="M37.3595 10.9803C37.3595 8.68117 39.1022 6.54173 41.5577 6.54173C41.669 6.54173 41.7738 6.55705 41.8803 6.56269C37.4353 2.48782 31.508 0 25.0002 0C16.265 0 8.58298 4.48131 4.11377 11.2674C4.70085 11.2859 5.25325 11.298 5.72178 11.298C8.33541 11.298 12.3853 10.9803 12.3853 10.9803C13.732 10.8996 13.8901 12.881 12.5433 13.0391C12.5433 13.0391 11.1893 13.1988 9.68214 13.2786L13.1538 23.6041C15.5158 24.4379 18.0746 24.8968 20.7471 24.8968C21.8592 24.8968 22.9519 24.8169 24.0204 24.6645L24.2583 23.9492L20.3657 13.2794C19.0173 13.1996 17.7416 13.0399 17.7416 13.0399C16.3948 12.9601 16.5521 10.9013 17.9012 10.9811C17.9012 10.9811 22.0293 11.2988 24.4857 11.2988C27.1001 11.2988 31.1484 10.9811 31.1484 10.9811C32.4967 10.9005 32.6548 12.8818 31.3072 13.0399C31.3072 13.0399 29.9516 13.1996 28.4469 13.2794L31.4548 22.2275C34.508 20.5856 37.095 18.2672 38.9812 15.4858C38.0724 13.977 37.3595 12.5722 37.3595 10.9803Z" fill="#2795B7"/>
</g>
<path d="M25.0001 0C17.156 0 10.1692 3.62085 5.58545 9.27228C9.60871 10.1085 14.0271 10.5722 18.6641 10.5722C27.4444 10.5722 35.4442 8.91342 41.4593 6.19254C37.0627 2.34025 31.3056 0 25.0001 0Z" fill="#3FB5D1"/>
<path d="M72.6051 36L66.6392 14.1818H69.3239L73.8835 31.9517H74.0966L78.7415 14.1818H81.7244L86.3693 31.9517H86.5824L91.142 14.1818H93.8267L87.8608 36H85.1335L80.3182 18.6136H80.1477L75.3324 36H72.6051ZM101.902 36.3409C100.425 36.3409 99.1286 35.9893 98.0135 35.2862C96.9055 34.5831 96.0391 33.5994 95.4141 32.3352C94.7962 31.071 94.4872 29.5937 94.4872 27.9034C94.4872 26.1989 94.7962 24.7109 95.4141 23.4396C96.0391 22.1683 96.9055 21.1811 98.0135 20.478C99.1286 19.7749 100.425 19.4233 101.902 19.4233C103.379 19.4233 104.672 19.7749 105.78 20.478C106.895 21.1811 107.761 22.1683 108.379 23.4396C109.004 24.7109 109.317 26.1989 109.317 27.9034C109.317 29.5937 109.004 31.071 108.379 32.3352C107.761 33.5994 106.895 34.5831 105.78 35.2862C104.672 35.9893 103.379 36.3409 101.902 36.3409ZM101.902 34.0824C103.024 34.0824 103.947 33.7947 104.672 33.2195C105.396 32.6442 105.933 31.8878 106.281 30.9503C106.629 30.0128 106.803 28.9972 106.803 27.9034C106.803 26.8097 106.629 25.7905 106.281 24.8459C105.933 23.9013 105.396 23.1378 104.672 22.5554C103.947 21.973 103.024 21.6818 101.902 21.6818C100.78 21.6818 99.8565 21.973 99.1321 22.5554C98.4077 23.1378 97.8714 23.9013 97.5234 24.8459C97.1754 25.7905 97.0014 26.8097 97.0014 27.9034C97.0014 28.9972 97.1754 30.0128 97.5234 30.9503C97.8714 31.8878 98.4077 32.6442 99.1321 33.2195C99.8565 33.7947 100.78 34.0824 101.902 34.0824ZM113.155 36V19.6364H115.584V22.108H115.754C116.052 21.2983 116.592 20.6413 117.373 20.1371C118.155 19.6328 119.035 19.3807 120.015 19.3807C120.2 19.3807 120.431 19.3842 120.708 19.3913C120.985 19.3984 121.194 19.4091 121.336 19.4233V21.9801C121.251 21.9588 121.056 21.9268 120.751 21.8842C120.452 21.8345 120.136 21.8097 119.802 21.8097C119.007 21.8097 118.297 21.9766 117.672 22.3104C117.054 22.6371 116.564 23.0916 116.202 23.674C115.846 24.2493 115.669 24.9062 115.669 25.6449V36H113.155ZM129.998 36.3409C128.634 36.3409 127.43 35.9964 126.386 35.3075C125.342 34.6115 124.525 33.6314 123.936 32.3672C123.346 31.0959 123.052 29.5938 123.052 27.8608C123.052 26.142 123.346 24.6506 123.936 23.3864C124.525 22.1222 125.346 21.1456 126.397 20.4567C127.448 19.7678 128.662 19.4233 130.04 19.4233C131.106 19.4233 131.947 19.6009 132.565 19.956C133.19 20.304 133.666 20.7017 133.993 21.1491C134.327 21.5895 134.586 21.9517 134.77 22.2358H134.983V14.1818H137.498V36H135.069V33.4858H134.77C134.586 33.7841 134.323 34.1605 133.982 34.6151C133.641 35.0625 133.155 35.4638 132.523 35.8189C131.89 36.1669 131.049 36.3409 129.998 36.3409ZM130.339 34.0824C131.347 34.0824 132.199 33.8196 132.895 33.294C133.591 32.7614 134.121 32.0263 134.483 31.0888C134.845 30.1442 135.026 29.054 135.026 27.8182C135.026 26.5966 134.849 25.5277 134.493 24.6115C134.138 23.6882 133.613 22.9709 132.917 22.4595C132.221 21.9411 131.361 21.6818 130.339 21.6818C129.273 21.6818 128.385 21.9553 127.675 22.5021C126.972 23.0419 126.443 23.777 126.088 24.7074C125.74 25.6307 125.566 26.6676 125.566 27.8182C125.566 28.983 125.743 30.0412 126.099 30.9929C126.461 31.9375 126.993 32.6903 127.697 33.2514C128.407 33.8054 129.287 34.0824 130.339 34.0824ZM142.792 36V14.1818H150.165C151.876 14.1818 153.275 14.4908 154.362 15.1087C155.456 15.7195 156.265 16.5469 156.791 17.5909C157.317 18.6349 157.579 19.7997 157.579 21.0852C157.579 22.3707 157.317 23.5391 156.791 24.5902C156.273 25.6413 155.47 26.4794 154.383 27.1044C153.297 27.7223 151.905 28.0312 150.207 28.0312H144.923V25.6875H150.122C151.294 25.6875 152.235 25.4851 152.945 25.0803C153.655 24.6754 154.17 24.1286 154.49 23.4396C154.817 22.7436 154.98 21.9588 154.98 21.0852C154.98 20.2116 154.817 19.4304 154.49 18.7415C154.17 18.0526 153.652 17.5128 152.934 17.1222C152.217 16.7244 151.265 16.5256 150.079 16.5256H145.434V36H142.792ZM161.494 36V19.6364H163.923V22.108H164.094C164.392 21.2983 164.932 20.6413 165.713 20.1371C166.494 19.6328 167.375 19.3807 168.355 19.3807C168.54 19.3807 168.771 19.3842 169.048 19.3913C169.325 19.3984 169.534 19.4091 169.676 19.4233V21.9801C169.591 21.9588 169.396 21.9268 169.09 21.8842C168.792 21.8345 168.476 21.8097 168.142 21.8097C167.347 21.8097 166.637 21.9766 166.012 22.3104C165.394 22.6371 164.904 23.0916 164.541 23.674C164.186 24.2493 164.009 24.9062 164.009 25.6449V36H161.494ZM179.019 36.3409C177.443 36.3409 176.083 35.9929 174.939 35.2969C173.803 34.5938 172.926 33.6136 172.308 32.3565C171.697 31.0923 171.392 29.6222 171.392 27.946C171.392 26.2699 171.697 24.7926 172.308 23.5142C172.926 22.2287 173.785 21.2273 174.886 20.5099C175.994 19.7855 177.286 19.4233 178.764 19.4233C179.616 19.4233 180.458 19.5653 181.289 19.8494C182.119 20.1335 182.876 20.5952 183.558 21.2344C184.24 21.8665 184.783 22.7045 185.188 23.7486C185.593 24.7926 185.795 26.0781 185.795 27.6051V28.6705H173.181V26.4972H183.238C183.238 25.5739 183.053 24.75 182.684 24.0256C182.322 23.3011 181.803 22.7294 181.129 22.3104C180.461 21.8913 179.673 21.6818 178.764 21.6818C177.762 21.6818 176.896 21.9304 176.164 22.4276C175.44 22.9176 174.882 23.5568 174.492 24.3452C174.101 25.1335 173.906 25.9787 173.906 26.8807V28.3295C173.906 29.5653 174.119 30.6129 174.545 31.4723C174.978 32.3246 175.578 32.9744 176.345 33.4219C177.112 33.8622 178.004 34.0824 179.019 34.0824C179.68 34.0824 180.276 33.9901 180.809 33.8054C181.349 33.6136 181.814 33.3295 182.205 32.9531C182.595 32.5696 182.897 32.0937 183.11 31.5256L185.539 32.2074C185.284 33.0312 184.854 33.7557 184.25 34.3807C183.646 34.9986 182.901 35.4815 182.013 35.8295C181.125 36.1705 180.127 36.3409 179.019 36.3409ZM201.21 23.3011L198.952 23.9403C198.81 23.5639 198.6 23.1982 198.323 22.843C198.053 22.4808 197.684 22.1825 197.215 21.9482C196.747 21.7138 196.146 21.5966 195.415 21.5966C194.414 21.5966 193.579 21.8274 192.911 22.2891C192.251 22.7436 191.921 23.3224 191.921 24.0256C191.921 24.6506 192.148 25.1442 192.602 25.5064C193.057 25.8686 193.767 26.1705 194.733 26.4119L197.162 27.0085C198.625 27.3636 199.715 27.907 200.433 28.6385C201.15 29.3629 201.509 30.2969 201.509 31.4403C201.509 32.3778 201.239 33.2159 200.699 33.9545C200.166 34.6932 199.421 35.2756 198.462 35.7017C197.503 36.1278 196.388 36.3409 195.117 36.3409C193.448 36.3409 192.066 35.9787 190.972 35.2543C189.879 34.5298 189.186 33.4716 188.895 32.0795L191.281 31.483C191.509 32.3636 191.938 33.0241 192.57 33.4645C193.21 33.9048 194.044 34.125 195.074 34.125C196.246 34.125 197.176 33.8764 197.865 33.3793C198.561 32.875 198.909 32.2713 198.909 31.5682C198.909 31 198.71 30.5241 198.313 30.1406C197.915 29.75 197.304 29.4588 196.48 29.267L193.753 28.6278C192.254 28.2727 191.154 27.7223 190.45 26.9766C189.754 26.2237 189.406 25.2827 189.406 24.1534C189.406 23.2301 189.666 22.4134 190.184 21.7031C190.71 20.9929 191.423 20.4354 192.325 20.0305C193.235 19.6257 194.264 19.4233 195.415 19.4233C197.034 19.4233 198.306 19.7784 199.229 20.4886C200.159 21.1989 200.82 22.1364 201.21 23.3011ZM216.884 23.3011L214.626 23.9403C214.484 23.5639 214.274 23.1982 213.997 22.843C213.727 22.4808 213.358 22.1825 212.889 21.9482C212.42 21.7138 211.82 21.5966 211.089 21.5966C210.087 21.5966 209.253 21.8274 208.585 22.2891C207.925 22.7436 207.594 23.3224 207.594 24.0256C207.594 24.6506 207.822 25.1442 208.276 25.5064C208.731 25.8686 209.441 26.1705 210.407 26.4119L212.836 27.0085C214.299 27.3636 215.389 27.907 216.107 28.6385C216.824 29.3629 217.183 30.2969 217.183 31.4403C217.183 32.3778 216.913 33.2159 216.373 33.9545C215.84 34.6932 215.094 35.2756 214.136 35.7017C213.177 36.1278 212.062 36.3409 210.79 36.3409C209.121 36.3409 207.74 35.9787 206.646 35.2543C205.553 34.5298 204.86 33.4716 204.569 32.0795L206.955 31.483C207.183 32.3636 207.612 33.0241 208.244 33.4645C208.884 33.9048 209.718 34.125 210.748 34.125C211.92 34.125 212.85 33.8764 213.539 33.3793C214.235 32.875 214.583 32.2713 214.583 31.5682C214.583 31 214.384 30.5241 213.987 30.1406C213.589 29.75 212.978 29.4588 212.154 29.267L209.427 28.6278C207.928 28.2727 206.827 27.7223 206.124 26.9766C205.428 26.2237 205.08 25.2827 205.08 24.1534C205.08 23.2301 205.339 22.4134 205.858 21.7031C206.384 20.9929 207.097 20.4354 207.999 20.0305C208.908 19.6257 209.938 19.4233 211.089 19.4233C212.708 19.4233 213.979 19.7784 214.903 20.4886C215.833 21.1989 216.494 22.1364 216.884 23.3011Z" fill="black"/>
</g>
<defs>
<clipPath id="clip0_13_203">
<rect width="223" height="50" fill="white"/>
</clipPath>
<clipPath id="clip1_13_203">
<rect width="50" height="50" fill="white"/>
</clipPath>
</defs>
</svg>
