<svg width="100" height="100" viewBox="0 0 100 100" fill="none" xmlns="http://www.w3.org/2000/svg">
<g clip-path="url(#clip0_22_72)">
<path d="M98.3333 66.6512C90.3436 66.6512 83.8455 60.153 83.8455 52.1633C83.8455 51.2417 84.5904 50.4967 85.5121 50.4967C86.4337 50.4967 87.1787 51.2417 87.1787 52.1633C87.1787 58.3131 92.1835 63.3179 98.3333 63.3179C99.2549 63.3179 99.9999 64.0629 99.9999 64.9846C99.9999 65.9062 99.2533 66.6512 98.3333 66.6512Z" fill="#CB465F"/>
<path d="M97.0899 59.4147C93.7767 59.4147 91.0818 56.7198 91.0818 53.4066C91.0818 52.485 91.8268 51.74 92.7484 51.74C93.67 51.74 94.415 52.485 94.415 53.4066C94.415 54.8832 95.615 56.0815 97.0899 56.0815C98.0116 56.0815 98.7565 56.8265 98.7565 57.7481C98.7565 58.6698 98.0099 59.4147 97.0899 59.4147Z" fill="#CB465F"/>
<path d="M46.1568 17.8078C45.2368 17.8078 44.4902 17.0628 44.4902 16.1412C44.4902 9.99138 39.487 4.98654 33.3356 4.98654C32.4156 4.98654 31.6689 4.24157 31.6689 3.31993C31.6689 2.3983 32.4156 1.65332 33.3356 1.65332C41.3236 1.65332 47.8234 8.15144 47.8234 16.1412C47.8234 17.0628 47.0768 17.8078 46.1568 17.8078Z" fill="#7383BF"/>
<path d="M38.9203 16.5645C38.0003 16.5645 37.2537 15.8195 37.2537 14.8979C37.2537 13.4213 36.0537 12.223 34.5804 12.223C33.6605 12.223 32.9138 11.478 32.9138 10.5564C32.9138 9.63475 33.6605 8.88977 34.5804 8.88977C37.892 8.88977 40.5869 11.5847 40.5869 14.8979C40.5869 15.8195 39.8403 16.5645 38.9203 16.5645Z" fill="#7383BF"/>
<path d="M87.4636 77.4124C84.3003 71.4343 72.6324 64.5962 72.6324 64.5962C69.9925 63.0912 66.8076 62.9229 65.301 65.6062C65.301 65.6062 61.5111 70.1527 60.5461 70.806C56.1413 73.7909 52.0614 73.6759 47.9432 69.556L38.3719 59.9847L28.8005 50.4133C24.6807 46.2935 24.5657 42.2153 27.5506 37.8104C28.2039 36.8455 32.7504 33.0556 32.7504 33.0556C35.432 31.549 35.2653 28.3641 33.7604 25.7242C33.7604 25.7242 26.9223 14.0562 20.9441 10.893C18.4009 9.54637 15.2776 10.0164 13.2427 12.0513L9.01118 16.2761C-4.3967 29.684 2.20474 44.8235 15.6126 58.2314L27.8672 70.486L40.1218 82.7406C53.5297 96.1485 68.6692 102.752 82.0771 89.342L86.3053 85.1138C88.3402 83.0789 88.8102 79.9557 87.4636 77.4124Z" fill="#52C306"/>
<path d="M66.1044 98.3467C57.7047 98.3467 48.545 93.5219 38.942 83.9205L14.4344 59.4097C6.86803 51.8449 2.22485 44.5152 0.631572 37.6304C-1.27836 29.369 1.14322 21.7876 7.833 15.0978L12.0612 10.8696C14.6294 8.30138 18.511 7.71806 21.7209 9.41634C28.0457 12.7629 34.9071 24.3842 35.1954 24.8775C36.4187 27.0224 36.8004 29.224 36.2821 31.0956C35.8921 32.5022 35.0021 33.6489 33.7055 34.4222C31.6722 36.1238 29.2956 38.232 28.9223 38.7487C26.2524 42.6869 26.5657 45.8251 29.9739 49.2333L49.1166 68.376C52.5248 71.7826 55.6614 72.0959 59.6063 69.4243C60.1163 69.0543 62.2262 66.6794 63.9261 64.6462C64.6978 63.3495 65.8444 62.4596 67.2527 62.0696C69.1276 61.5479 71.3276 61.9329 73.4542 63.1462C73.9658 63.4462 85.5871 70.3076 88.9336 76.6324C90.6336 79.8423 90.0486 83.7239 87.4804 86.2921L83.2522 90.5203C78.0323 95.7435 72.2725 98.3467 66.1044 98.3467ZM17.8677 11.7896C16.606 11.7896 15.3627 12.2829 14.4178 13.2262L10.1896 17.4544C4.28645 23.3592 2.22152 29.7107 3.8798 36.8788C5.32975 43.1469 9.67294 49.935 16.791 57.0514L41.2986 81.5623C56.628 96.8884 69.9493 99.1083 80.8972 88.1637L85.1254 83.9355C86.652 82.4089 86.9987 80.1006 85.9904 78.1924C83.0855 72.7042 71.9009 66.0994 71.7892 66.0328C70.4943 65.2961 69.1276 65.0178 68.146 65.2828C67.546 65.4511 67.0894 65.8228 66.7527 66.4228L66.5794 66.6744C65.3944 68.096 62.5245 71.4776 61.4779 72.1876C56.2297 75.7425 51.2799 75.2541 46.76 70.736L27.619 51.5916C23.1008 47.0734 22.6125 42.1202 26.1674 36.8738C26.8757 35.8288 30.2589 32.9589 31.6805 31.7723L31.9305 31.5989C32.5305 31.2623 32.9022 30.8056 33.0705 30.2056C33.3421 29.2257 33.0572 27.8574 32.3088 26.5458C32.2522 26.4508 25.6491 15.2661 20.1593 12.3612C19.4343 11.9763 18.6476 11.7896 17.8677 11.7896Z" fill="#388F04"/>
<path d="M66.6694 80.019C66.6127 80.019 66.5544 80.0157 66.496 80.0107C55.0048 78.8174 47.48 71.516 47.165 71.206C46.51 70.561 46.5034 69.5077 47.1467 68.8527C47.7933 68.1978 48.8466 68.1878 49.5033 68.8311C49.5733 68.8977 56.5497 75.6259 66.8394 76.6942C67.7543 76.7908 68.421 77.6091 68.326 78.5258C68.236 79.3807 67.5127 80.019 66.6694 80.019Z" fill="#388F04"/>
<path d="M29.9989 53.3533C29.6272 53.3533 29.2522 53.2283 28.9422 52.9717C28.5589 52.6583 19.5475 45.1136 18.3442 33.5256C18.2492 32.609 18.9142 31.7907 19.8309 31.694C20.7458 31.6224 21.5658 32.2673 21.6608 33.1806C22.7191 43.3803 30.9805 50.3317 31.0638 50.4001C31.7721 50.9884 31.8721 52.0367 31.2871 52.7467C30.9555 53.1466 30.4788 53.3533 29.9989 53.3533Z" fill="#388F04"/>
</g>
<defs>
<clipPath id="clip0_22_72">
<rect width="100" height="100" fill="white"/>
</clipPath>
</defs>
</svg>
